<?xml version="1.0" encoding="UTF-8" standalone="no"?><svg xmlns="http://www.w3.org/2000/svg" xmlns:xlink="http://www.w3.org/1999/xlink" contentScriptType="application/ecmascript" contentStyleType="text/css" height="1416px" preserveAspectRatio="none" style="width:1492px;height:1416px;" version="1.1" viewBox="0 0 1492 1416" width="1492.8px" zoomAndPan="magnify"><defs/><g><ellipse cx="131.8018" cy="38.4" fill="#000000" rx="24" ry="24" style="stroke:none;stroke-width:2.4;"/><g id="STARTING"><rect fill="#FEFECE" height="120" rx="30" ry="30" style="stroke:#A80036;stroke-width:3.5999999999999996;" width="220.8" x="21.4018" y="307.2"/><line style="stroke:#A80036;stroke-width:3.5999999999999996;" x1="21.4018" x2="242.2018" y1="370.3125" y2="370.3125"/><text fill="#000000" font-family="sans-serif" font-size="33.6" lengthAdjust="spacing" textLength="172.8" x="45.4018" y="350.3883">STARTING</text></g><g id="STOPPING"><rect fill="#FEFECE" height="120" rx="30" ry="30" style="stroke:#A80036;stroke-width:3.5999999999999996;" width="216" x="470.2018" y="672"/><line style="stroke:#A80036;stroke-width:3.5999999999999996;" x1="470.2018" x2="686.2018" y1="735.1125" y2="735.1125"/><text fill="#000000" font-family="sans-serif" font-size="33.6" lengthAdjust="spacing" textLength="168" x="494.2018" y="715.1883">STOPPING</text></g><g id="DELETING"><rect fill="#FF9999" height="120" rx="30" ry="30" style="stroke:#A80036;stroke-width:3.5999999999999996;" width="218.4" x="605.8018" y="1281.6"/><line style="stroke:#A80036;stroke-width:3.5999999999999996;" x1="605.8018" x2="824.2018" y1="1344.7125" y2="1344.7125"/><text fill="#000000" font-family="sans-serif" font-size="33.6" lengthAdjust="spacing" textLength="170.4" x="629.8018" y="1324.7883">DELETING</text></g><g id="STOPPED"><rect fill="#FEFECE" height="120" rx="30" ry="30" style="stroke:#A80036;stroke-width:3.5999999999999996;" width="204" x="209.8018" y="976.8"/><line style="stroke:#A80036;stroke-width:3.5999999999999996;" x1="209.8018" x2="413.8018" y1="1039.9125" y2="1039.9125"/><text fill="#000000" font-family="sans-serif" font-size="33.6" lengthAdjust="spacing" textLength="156" x="233.8018" y="1019.9883">STOPPED</text></g><ellipse cx="933.4018" cy="1341.6" fill="none" rx="24" ry="24" style="stroke:#000000;stroke-width:2.4;"/><ellipse cx="934.6018" cy="1342.8" fill="#000000" rx="14.4" ry="14.4" style="stroke:none;stroke-width:2.4;"/><rect fill="#FEFECE" height="240.0182" rx="30" ry="30" style="stroke:#A80036;stroke-width:3.5999999999999996;" width="788.4" x="689.8018" y="247.2"/><rect fill="#FFFFFF" height="162.5057" rx="30" ry="30" style="stroke:#FFFFFF;stroke-width:2.4;" width="774" x="697.0018" y="317.5125"/><line style="stroke:#A80036;stroke-width:3.5999999999999996;" x1="689.8018" x2="1478.2018" y1="310.3125" y2="310.3125"/><text fill="#000000" font-family="sans-serif" font-size="33.6" lengthAdjust="spacing" textLength="160.8" x="1003.6018" y="290.3883">STARTED</text><g id="STARTED.ACTUAL"><rect fill="#99FF99" height="120" rx="30" ry="30" style="stroke:#A80036;stroke-width:3.5999999999999996;" width="184.8" x="718.6018" y="339.1125"/><line style="stroke:#A80036;stroke-width:3.5999999999999996;" x1="718.6018" x2="903.4018" y1="402.225" y2="402.225"/><text fill="#000000" font-family="sans-serif" font-size="33.6" lengthAdjust="spacing" textLength="136.8" x="742.6018" y="382.3008">ACTUAL</text></g><g id="STARTED.OUTDATED"><rect fill="#FFFF99" height="120" rx="30" ry="30" style="stroke:#A80036;stroke-width:3.5999999999999996;" width="240" x="1216.6018" y="339.1125"/><line style="stroke:#A80036;stroke-width:3.5999999999999996;" x1="1216.6018" x2="1456.6018" y1="402.225" y2="402.225"/><text fill="#000000" font-family="sans-serif" font-size="33.6" lengthAdjust="spacing" textLength="192" x="1240.6018" y="382.3008">OUTDATED</text></g><!--MD5=[86fc665ec74e4f1da0175e1284a410be]
link ACTUAL to OUTDATED--><path d="M903.9641,433.8727 C922.4167,439.3739 941.8306,444.2025 960.4018,447.1125 C1047.8678,460.8182 1071.8434,458.8007 1159.6018,447.1125 C1174.1491,445.175 1189.1962,442.379 1204.091,439.0965 " fill="none" id="ACTUAL-to-OUTDATED" style="stroke:#A80036;stroke-width:2.4;"/><polygon fill="#A80036" points="1216.553,436.2331,1193.3517,431.7147,1204.8579,438.9207,1197.6519,450.4269,1216.553,436.2331" style="stroke:#A80036;stroke-width:2.4;"/><text fill="#000000" font-family="sans-serif" font-size="31.2" lengthAdjust="spacing" textLength="194.4" x="962.8018" y="437.673">Update spec</text><!--MD5=[8549d6b019d40a8e0376180325d413ad]
link OUTDATED to ACTUAL--><path d="M1216.1035,399.1125 C1125.5962,399.1125 1002.8484,399.1125 916.2629,399.1125 " fill="none" id="OUTDATED-to-ACTUAL" style="stroke:#A80036;stroke-width:2.4;"/><polygon fill="#A80036" points="903.7586,399.1125,925.3586,408.7125,915.7586,399.1125,925.3586,389.5125,903.7586,399.1125" style="stroke:#A80036;stroke-width:2.4;"/><text fill="#000000" font-family="sans-serif" font-size="31.2" lengthAdjust="spacing" textLength="266.4" x="926.8018" y="382.473">Deploy complete</text><!--MD5=[d6dd90c413a933bf0f77ab3b83801a28]
link *start to STARTING--><path d="M131.8018,63.1135 C131.8018,111.6797 131.8018,221.2202 131.8018,294.6902 " fill="none" id="*start-to-STARTING" style="stroke:#A80036;stroke-width:2.4;"/><polygon fill="#A80036" points="131.8018,307.0603,141.4018,285.4603,131.8018,295.0603,122.2018,285.4603,131.8018,307.0603" style="stroke:#A80036;stroke-width:2.4;"/><text fill="#000000" font-family="sans-serif" font-size="31.2" lengthAdjust="spacing" textLength="103.2" x="134.2018" y="165.7605">Create</text><!--MD5=[f9c6d39269a1898d6a6ebb56571e8c32]
link STARTING to STARTED--><path d="M242.9647,367.2 C350.1334,367.2 518.928,367.2 677.3112,367.2 " fill="none" id="STARTING-to-STARTED" style="stroke:#A80036;stroke-width:2.4;"/><polygon fill="#A80036" points="689.6674,367.2,668.0674,357.6,677.6674,367.2,668.0674,376.8,689.6674,367.2" style="stroke:#A80036;stroke-width:2.4;"/><text fill="#000000" font-family="sans-serif" font-size="31.2" lengthAdjust="spacing" textLength="360" x="286.0018" y="350.5605">Initial deploy complete</text><!--MD5=[62277dbc0b2af9ae382c71e4a6feeca8]
link STARTING to STOPPING--><path d="M205.5156,427.4393 C284.9954,492.3905 411.2786,595.5898 494.4547,663.5616 " fill="none" id="STARTING-to-STOPPING" style="stroke:#A80036;stroke-width:2.4;"/><polygon fill="#A80036" points="504.3785,671.6712,493.7282,650.5693,495.0867,664.0776,481.5784,665.4361,504.3785,671.6712" style="stroke:#A80036;stroke-width:2.4;"/><text fill="#000000" font-family="sans-serif" font-size="31.2" lengthAdjust="spacing" textLength="69.6" x="410.2018" y="590.5605">Stop</text><!--MD5=[20c8f541220212fb0453028cd17ccac4]
link STARTING to DELETING--><path d="M114.1946,427.6661 C78.7159,563.1146 14.4,894.8052 167.8018,1096.8 C270.8518,1232.4931 465.8969,1294.7494 593.1238,1322.0006 " fill="none" id="STARTING-to-DELETING" style="stroke:#A80036;stroke-width:2.4;"/><polygon fill="#A80036" points="605.2188,1324.5298,586.0411,1310.7118,593.4729,1322.0735,582.1111,1329.5053,605.2188,1324.5298" style="stroke:#A80036;stroke-width:2.4;"/><text fill="#000000" font-family="sans-serif" font-size="31.2" lengthAdjust="spacing" textLength="103.2" x="88.6018" y="895.3605">Delete</text><!--MD5=[ed6050b810fa9f706a367c3ff1a0286e]
link STARTED to STOPPING--><path d="M917.3839,487.6601 C835.8314,546.409 740.7751,614.8855 672.0763,664.3747 " fill="none" id="STARTED-to-STOPPING" style="stroke:#A80036;stroke-width:2.4;"/><polygon fill="#A80036" points="662.1362,671.5354,685.2734,666.699,671.8728,664.5211,674.0506,651.1205,662.1362,671.5354" style="stroke:#A80036;stroke-width:2.4;"/><text fill="#000000" font-family="sans-serif" font-size="31.2" lengthAdjust="spacing" textLength="69.6" x="818.2018" y="590.5605">Stop</text><!--MD5=[23a814a92c72d550a142635f1aac5118]
link STARTED to DELETING--><path d="M1064.8289,487.5058 C1049.4331,573.2753 1025.6762,690.8371 995.8018,792 C954.6782,931.2547 943.7234,967.224 878.2018,1096.8 C847.1302,1158.2472 803.5286,1222.8605 769.2091,1270.267 " fill="none" id="STARTED-to-DELETING" style="stroke:#A80036;stroke-width:2.4;"/><polygon fill="#A80036" points="761.591,1280.719,782.0719,1268.9184,768.6594,1271.0216,766.5562,1257.6091,761.591,1280.719" style="stroke:#A80036;stroke-width:2.4;"/><text fill="#000000" font-family="sans-serif" font-size="31.2" lengthAdjust="spacing" textLength="103.2" x="974.2018" y="895.3605">Delete</text><!--MD5=[fe08ae31c024323f5aea0bb0522b7d22]
link STOPPING to STOPPING--><path d="M686.7605,704.3453 C731.9206,702.438 770.2018,711.6562 770.2018,732 C770.2018,750.4366 738.7618,759.7358 699.2546,759.8978 " fill="none" id="STOPPING-to-STOPPING" style="stroke:#A80036;stroke-width:2.4;"/><polygon fill="#A80036" points="686.7605,759.6547,708.1693,769.6738,698.7582,759.8886,708.5434,750.4774,686.7605,759.6547" style="stroke:#A80036;stroke-width:2.4;"/><text fill="#000000" font-family="sans-serif" font-size="31.2" lengthAdjust="spacing" textLength="194.4" x="784.6018" y="742.9605">Update spec</text><!--MD5=[97554414fd517474d5fd5a9e9f8c9668]
link STOPPING to STOPPED--><path d="M525.5698,792.2186 C481.6027,842.5234 418.8761,914.2918 372.7382,967.08 " fill="none" id="STOPPING-to-STOPPED" style="stroke:#A80036;stroke-width:2.4;"/><polygon fill="#A80036" points="364.3246,976.7064,385.7675,966.7605,372.2216,967.6711,371.311,954.1252,364.3246,976.7064" style="stroke:#A80036;stroke-width:2.4;"/><text fill="#000000" font-family="sans-serif" font-size="31.2" lengthAdjust="spacing" textLength="225.6" x="463.0018" y="895.3605">Stop complete</text><!--MD5=[5fb21794e79f8a4499ed5330b3be92ab]
link STOPPING to DELETING--><path d="M656.1775,792.6557 C677.1338,813.0173 697.4882,837.3888 710.2018,864 C772.9766,995.3964 751.8835,1171.2722 732.4476,1268.7682 " fill="none" id="STOPPING-to-DELETING" style="stroke:#A80036;stroke-width:2.4;"/><polygon fill="#A80036" points="729.8474,1281.4152,743.6009,1262.1912,732.2642,1269.6611,724.7944,1258.3244,729.8474,1281.4152" style="stroke:#A80036;stroke-width:2.4;"/><text fill="#000000" font-family="sans-serif" font-size="31.2" lengthAdjust="spacing" textLength="103.2" x="753.4018" y="1047.7605">Delete</text><!--MD5=[75a204fa9372a53b122c3788c8835dae]
link STOPPED to STOPPED--><path d="M414.1469,1009.283 C459.1104,1006.848 497.8018,1016.0203 497.8018,1036.8 C497.8018,1055.6316 466.025,1064.9302 426.6007,1064.6957 " fill="none" id="STOPPED-to-STOPPED" style="stroke:#A80036;stroke-width:2.4;"/><polygon fill="#A80036" points="414.1469,1064.317,435.4448,1074.5698,426.1413,1064.6821,436.029,1055.3787,414.1469,1064.317" style="stroke:#A80036;stroke-width:2.4;"/><text fill="#000000" font-family="sans-serif" font-size="31.2" lengthAdjust="spacing" textLength="194.4" x="512.2018" y="1047.7605">Update spec</text><!--MD5=[ef0cfe4ad24972f6aa2f88a38d664a10]
link STOPPED to STARTING--><path d="M295.4177,975.851 C262.1573,852.1224 186.8599,572.016 151.2103,439.3997 " fill="none" id="STOPPED-to-STARTING" style="stroke:#A80036;stroke-width:2.4;"/><polygon fill="#A80036" points="148.093,427.8036,144.4301,451.1553,151.2085,439.3921,162.9717,446.1705,148.093,427.8036" style="stroke:#A80036;stroke-width:2.4;"/><text fill="#000000" font-family="sans-serif" font-size="31.2" lengthAdjust="spacing" textLength="74.4" x="247.0018" y="742.9605">Start</text><!--MD5=[cc6c6e264826b6a128662da6f8ecef12]
link STOPPED to DELETING--><path d="M391.4611,1097.0186 C458.8342,1147.9495 555.3115,1220.8817 625.3697,1273.8425 " fill="none" id="STOPPED-to-DELETING" style="stroke:#A80036;stroke-width:2.4;"/><polygon fill="#A80036" points="635.508,1281.5064,624.0669,1260.8226,625.9356,1274.2698,612.4883,1276.1385,635.508,1281.5064" style="stroke:#A80036;stroke-width:2.4;"/><text fill="#000000" font-family="sans-serif" font-size="31.2" lengthAdjust="spacing" textLength="103.2" x="539.8018" y="1200.1605">Delete</text><!--MD5=[03f244770d4cde565fb8310d3500bcb1]
link DELETING to *end--><path d="M825.055,1341.6 C848.8418,1341.6 872.6285,1341.6 896.4154,1341.6 " fill="none" id="DELETING-to-*end" style="stroke:#A80036;stroke-width:2.4;"/><polygon fill="#A80036" points="908.8543,1341.6,887.2543,1332,896.8543,1341.6,887.2543,1351.2,908.8543,1341.6" style="stroke:#A80036;stroke-width:2.4;"/><!--MD5=[1d569c4b9881f3a77fd27c95f8712560]
@startuml

[*] - -> STARTING : Create

STARTING -> STARTED : Initial deploy complete
STARTING -> STOPPING : Stop
STARTING -> DELETING : Delete

state STARTED {
    ACTUAL -> OUTDATED <<2>> : Update spec
    OUTDATED -> ACTUAL <<1>> : Deploy complete
}

STARTED - -> STOPPING : Stop
STARTED - -> DELETING <<3>> : Delete

STOPPING - -> STOPPING : Update spec
STOPPING - -> STOPPED : Stop complete
STOPPING - -> DELETING : Delete

STOPPED - -> STOPPED : Update spec
STOPPED - -> STARTING : Start
STOPPED - -> DELETING : Delete

DELETING -> [*]

skinparam Shadowing false
skinparam state {
  BackgroundColor<<1>> 9f9
  BackgroundColor<<2>> ff9
  BackgroundColor<<3>> f99
}

@enduml

PlantUML version 1.2021.01(Tue Feb 02 10:55:08 MSK 2021)
(GPL source distribution)
Java Runtime: OpenJDK Runtime Environment
JVM: OpenJDK 64-Bit Server VM
Default Encoding: UTF-8
Language: en
Country: US
--></g></svg>