<?xml version="1.0" encoding="UTF-8" standalone="no"?><svg xmlns="http://www.w3.org/2000/svg" xmlns:xlink="http://www.w3.org/1999/xlink" contentScriptType="application/ecmascript" contentStyleType="text/css" height="596px" preserveAspectRatio="none" style="width:925px;height:596px;" version="1.1" viewBox="0 0 925 596" width="925px" zoomAndPan="magnify"><defs/><g><!--MD5=[befd7e93cdff98ff38b1d2e812c93922]
class DocumentBuilderFactory--><rect codeLine="2" fill="#FEFECE" height="60.8047" id="DocumentBuilderFactory" style="stroke:#A80036;stroke-width:1.5;" width="188" x="303" y="92"/><ellipse cx="320.7" cy="108" fill="#ADD1B2" rx="11" ry="11" style="stroke:#A80036;stroke-width:1.0;"/><path d="M323.1688,113.875 Q322.5906,114.1875 321.95,114.3438 Q321.3094,114.5 320.6063,114.5 Q318.1063,114.5 316.7781,112.8281 Q315.4656,111.1563 315.4656,108 Q315.4656,104.8438 316.7781,103.1719 Q318.1063,101.5 320.6063,101.5 Q321.3094,101.5 321.95,101.6563 Q322.6063,101.8125 323.1688,102.125 L323.1688,104.9219 Q322.5438,104.3594 321.95,104.0938 Q321.3563,103.8125 320.7313,103.8125 Q319.3875,103.8125 318.7,104.875 Q318.0125,105.9375 318.0125,108 Q318.0125,110.0781 318.7,111.1406 Q319.3875,112.1875 320.7313,112.1875 Q321.3563,112.1875 321.95,111.9219 Q322.5438,111.6563 323.1688,111.0781 L323.1688,113.875 Z " fill="#000000"/><text fill="#000000" font-family="sans-serif" font-size="12" lengthAdjust="spacing" textLength="150" x="335.3" y="112.1543">DocumentBuilderFactory</text><line style="stroke:#A80036;stroke-width:1.5;" x1="304" x2="490" y1="124" y2="124"/><line style="stroke:#A80036;stroke-width:1.5;" x1="304" x2="490" y1="132" y2="132"/><text fill="#000000" font-family="sans-serif" font-size="11" lengthAdjust="spacing" textLength="176" x="309" y="146.2104">newBuilder(): DocumentBuilder</text><!--MD5=[42db0cba1aced2af1a0367181130da2c]
class XalanDocumentBuilderFactory--><rect codeLine="5" fill="#FEFECE" height="60.8047" id="XalanDocumentBuilderFactory" style="stroke:#A80036;stroke-width:1.5;" width="234" x="7" y="255.5"/><ellipse cx="30.55" cy="271.5" fill="#ADD1B2" rx="11" ry="11" style="stroke:#A80036;stroke-width:1.0;"/><path d="M33.0188,277.375 Q32.4406,277.6875 31.8,277.8438 Q31.1594,278 30.4563,278 Q27.9563,278 26.6281,276.3281 Q25.3156,274.6563 25.3156,271.5 Q25.3156,268.3438 26.6281,266.6719 Q27.9563,265 30.4563,265 Q31.1594,265 31.8,265.1563 Q32.4563,265.3125 33.0188,265.625 L33.0188,268.4219 Q32.3938,267.8594 31.8,267.5938 Q31.2063,267.3125 30.5813,267.3125 Q29.2375,267.3125 28.55,268.375 Q27.8625,269.4375 27.8625,271.5 Q27.8625,273.5781 28.55,274.6406 Q29.2375,275.6875 30.5813,275.6875 Q31.2063,275.6875 31.8,275.4219 Q32.3938,275.1563 33.0188,274.5781 L33.0188,277.375 Z " fill="#000000"/><text fill="#000000" font-family="sans-serif" font-size="12" lengthAdjust="spacing" textLength="183" x="46.45" y="275.6543">XalanDocumentBuilderFactory</text><line style="stroke:#A80036;stroke-width:1.5;" x1="8" x2="240" y1="287.5" y2="287.5"/><line style="stroke:#A80036;stroke-width:1.5;" x1="8" x2="240" y1="295.5" y2="295.5"/><ellipse cx="18" cy="306.5" fill="#84BE84" rx="3" ry="3" style="stroke:#038048;stroke-width:1.0;"/><text fill="#000000" font-family="sans-serif" font-size="11" lengthAdjust="spacing" textLength="208" x="27" y="309.7104">newBuilder(): XalanDocumentBuilder</text><!--MD5=[217ce1ebfb74f7582726747072ad0c60]
class XercesDocumentBuilderFactory--><rect codeLine="8" fill="#FEFECE" height="60.8047" id="XercesDocumentBuilderFactory" style="stroke:#A80036;stroke-width:1.5;" width="241" x="276.5" y="255.5"/><ellipse cx="300.05" cy="271.5" fill="#ADD1B2" rx="11" ry="11" style="stroke:#A80036;stroke-width:1.0;"/><path d="M302.5188,277.375 Q301.9406,277.6875 301.3,277.8438 Q300.6594,278 299.9563,278 Q297.4563,278 296.1281,276.3281 Q294.8156,274.6563 294.8156,271.5 Q294.8156,268.3438 296.1281,266.6719 Q297.4563,265 299.9563,265 Q300.6594,265 301.3,265.1563 Q301.9563,265.3125 302.5188,265.625 L302.5188,268.4219 Q301.8938,267.8594 301.3,267.5938 Q300.7063,267.3125 300.0813,267.3125 Q298.7375,267.3125 298.05,268.375 Q297.3625,269.4375 297.3625,271.5 Q297.3625,273.5781 298.05,274.6406 Q298.7375,275.6875 300.0813,275.6875 Q300.7063,275.6875 301.3,275.4219 Q301.8938,275.1563 302.5188,274.5781 L302.5188,277.375 Z " fill="#000000"/><text fill="#000000" font-family="sans-serif" font-size="12" lengthAdjust="spacing" textLength="190" x="315.95" y="275.6543">XercesDocumentBuilderFactory</text><line style="stroke:#A80036;stroke-width:1.5;" x1="277.5" x2="516.5" y1="287.5" y2="287.5"/><line style="stroke:#A80036;stroke-width:1.5;" x1="277.5" x2="516.5" y1="295.5" y2="295.5"/><ellipse cx="287.5" cy="306.5" fill="#84BE84" rx="3" ry="3" style="stroke:#038048;stroke-width:1.0;"/><text fill="#000000" font-family="sans-serif" font-size="11" lengthAdjust="spacing" textLength="215" x="296.5" y="309.7104">newBuilder(): XercesDocumentBuilder</text><path d="M333.5,6 L333.5,31.1328 A0,0 0 0 0 333.5,31.1328 L393,31.1328 L397,91.7538 L401,31.1328 L460.5,31.1328 A0,0 0 0 0 460.5,31.1328 L460.5,16 L450.5,6 L333.5,6 A0,0 0 0 0 333.5,6 " fill="#FBFB77" style="stroke:#A80036;stroke-width:1.0;"/><path d="M450.5,6 L450.5,16 L460.5,16 L450.5,6 " fill="#FBFB77" style="stroke:#A80036;stroke-width:1.0;"/><text fill="#000000" font-family="sans-serif" font-size="13" lengthAdjust="spacing" textLength="106" x="339.5" y="23.0669">Abstract Factory</text><!--MD5=[1eb0ed898df0e238e86425342abd2b31]
class DocumentBuilder--><rect codeLine="14" fill="#FEFECE" height="112.0234" id="DocumentBuilder" style="stroke:#A80036;stroke-width:1.5;" width="137" x="552.5" y="230"/><ellipse cx="567.5" cy="246" fill="#ADD1B2" rx="11" ry="11" style="stroke:#A80036;stroke-width:1.0;"/><path d="M569.9688,251.875 Q569.3906,252.1875 568.75,252.3438 Q568.1094,252.5 567.4063,252.5 Q564.9063,252.5 563.5781,250.8281 Q562.2656,249.1563 562.2656,246 Q562.2656,242.8438 563.5781,241.1719 Q564.9063,239.5 567.4063,239.5 Q568.1094,239.5 568.75,239.6563 Q569.4063,239.8125 569.9688,240.125 L569.9688,242.9219 Q569.3438,242.3594 568.75,242.0938 Q568.1563,241.8125 567.5313,241.8125 Q566.1875,241.8125 565.5,242.875 Q564.8125,243.9375 564.8125,246 Q564.8125,248.0781 565.5,249.1406 Q566.1875,250.1875 567.5313,250.1875 Q568.1563,250.1875 568.75,249.9219 Q569.3438,249.6563 569.9688,249.0781 L569.9688,251.875 Z " fill="#000000"/><text fill="#000000" font-family="sans-serif" font-size="12" lengthAdjust="spacing" textLength="105" x="581.5" y="250.1543">DocumentBuilder</text><line style="stroke:#A80036;stroke-width:1.5;" x1="553.5" x2="688.5" y1="262" y2="262"/><line style="stroke:#A80036;stroke-width:1.5;" x1="553.5" x2="688.5" y1="270" y2="270"/><ellipse cx="563.5" cy="281" fill="#84BE84" rx="3" ry="3" style="stroke:#038048;stroke-width:1.0;"/><text fill="#000000" font-family="sans-serif" font-size="11" lengthAdjust="spacing" textLength="104" x="572.5" y="284.2104">addElementNode()</text><ellipse cx="563.5" cy="293.8047" fill="#84BE84" rx="3" ry="3" style="stroke:#038048;stroke-width:1.0;"/><text fill="#000000" font-family="sans-serif" font-size="11" lengthAdjust="spacing" textLength="78" x="572.5" y="297.0151">addAttribute()</text><ellipse cx="563.5" cy="306.6094" fill="#84BE84" rx="3" ry="3" style="stroke:#038048;stroke-width:1.0;"/><text fill="#000000" font-family="sans-serif" font-size="11" lengthAdjust="spacing" textLength="83" x="572.5" y="309.8198">addTextNode()</text><text fill="#000000" font-family="sans-serif" font-size="11" lengthAdjust="spacing" textLength="0" x="576.5" y="322.6245"/><ellipse cx="563.5" cy="332.2188" fill="#84BE84" rx="3" ry="3" style="stroke:#038048;stroke-width:1.0;"/><text fill="#000000" font-family="sans-serif" font-size="11" lengthAdjust="spacing" textLength="100" x="572.5" y="335.4292">build(): Document</text><!--MD5=[992ef2d064d1c7d64fa8e27072debca0]
class XalanDocumentBuilder--><rect codeLine="21" fill="#FEFECE" height="60.8047" id="XalanDocumentBuilder" style="stroke:#A80036;stroke-width:1.5;" width="170" x="536" y="419"/><ellipse cx="551" cy="435" fill="#ADD1B2" rx="11" ry="11" style="stroke:#A80036;stroke-width:1.0;"/><path d="M553.4688,440.875 Q552.8906,441.1875 552.25,441.3438 Q551.6094,441.5 550.9063,441.5 Q548.4063,441.5 547.0781,439.8281 Q545.7656,438.1563 545.7656,435 Q545.7656,431.8438 547.0781,430.1719 Q548.4063,428.5 550.9063,428.5 Q551.6094,428.5 552.25,428.6563 Q552.9063,428.8125 553.4688,429.125 L553.4688,431.9219 Q552.8438,431.3594 552.25,431.0938 Q551.6563,430.8125 551.0313,430.8125 Q549.6875,430.8125 549,431.875 Q548.3125,432.9375 548.3125,435 Q548.3125,437.0781 549,438.1406 Q549.6875,439.1875 551.0313,439.1875 Q551.6563,439.1875 552.25,438.9219 Q552.8438,438.6563 553.4688,438.0781 L553.4688,440.875 Z " fill="#000000"/><text fill="#000000" font-family="sans-serif" font-size="12" lengthAdjust="spacing" textLength="138" x="565" y="439.1543">XalanDocumentBuilder</text><line style="stroke:#A80036;stroke-width:1.5;" x1="537" x2="705" y1="451" y2="451"/><line style="stroke:#A80036;stroke-width:1.5;" x1="537" x2="705" y1="459" y2="459"/><ellipse cx="547" cy="470" fill="#84BE84" rx="3" ry="3" style="stroke:#038048;stroke-width:1.0;"/><text fill="#000000" font-family="sans-serif" font-size="11" lengthAdjust="spacing" textLength="132" x="556" y="473.2104">build(): XalanDocument</text><!--MD5=[09ca3172b2af152a06ae4122bbe8f957]
class XercesDocumentBuilder--><rect codeLine="24" fill="#FEFECE" height="60.8047" id="XercesDocumentBuilder" style="stroke:#A80036;stroke-width:1.5;" width="177" x="741.5" y="419"/><ellipse cx="756.5" cy="435" fill="#ADD1B2" rx="11" ry="11" style="stroke:#A80036;stroke-width:1.0;"/><path d="M758.9688,440.875 Q758.3906,441.1875 757.75,441.3438 Q757.1094,441.5 756.4063,441.5 Q753.9063,441.5 752.5781,439.8281 Q751.2656,438.1563 751.2656,435 Q751.2656,431.8438 752.5781,430.1719 Q753.9063,428.5 756.4063,428.5 Q757.1094,428.5 757.75,428.6563 Q758.4063,428.8125 758.9688,429.125 L758.9688,431.9219 Q758.3438,431.3594 757.75,431.0938 Q757.1563,430.8125 756.5313,430.8125 Q755.1875,430.8125 754.5,431.875 Q753.8125,432.9375 753.8125,435 Q753.8125,437.0781 754.5,438.1406 Q755.1875,439.1875 756.5313,439.1875 Q757.1563,439.1875 757.75,438.9219 Q758.3438,438.6563 758.9688,438.0781 L758.9688,440.875 Z " fill="#000000"/><text fill="#000000" font-family="sans-serif" font-size="12" lengthAdjust="spacing" textLength="145" x="770.5" y="439.1543">XercesDocumentBuilder</text><line style="stroke:#A80036;stroke-width:1.5;" x1="742.5" x2="917.5" y1="451" y2="451"/><line style="stroke:#A80036;stroke-width:1.5;" x1="742.5" x2="917.5" y1="459" y2="459"/><ellipse cx="752.5" cy="470" fill="#84BE84" rx="3" ry="3" style="stroke:#038048;stroke-width:1.0;"/><text fill="#000000" font-family="sans-serif" font-size="11" lengthAdjust="spacing" textLength="139" x="761.5" y="473.2104">build(): XercesDocument</text><path d="M587.5,110 L587.5,135.1328 A0,0 0 0 0 587.5,135.1328 L617,135.1328 L621,229.8657 L625,135.1328 L654.5,135.1328 A0,0 0 0 0 654.5,135.1328 L654.5,120 L644.5,110 L587.5,110 A0,0 0 0 0 587.5,110 " fill="#FBFB77" style="stroke:#A80036;stroke-width:1.0;"/><path d="M644.5,110 L644.5,120 L654.5,120 L644.5,110 " fill="#FBFB77" style="stroke:#A80036;stroke-width:1.0;"/><text fill="#000000" font-family="sans-serif" font-size="13" lengthAdjust="spacing" textLength="46" x="593.5" y="127.0669">Builder</text><!--MD5=[59b530d44ae785dc18db921986a9c15c]
class Document--><rect codeLine="30" fill="#FEFECE" height="48" id="Document" style="stroke:#A80036;stroke-width:1.5;" width="95" x="405.5" y="425.5"/><ellipse cx="420.5" cy="441.5" fill="#B4A7E5" rx="11" ry="11" style="stroke:#A80036;stroke-width:1.0;"/><path d="M416.9219,437.2813 L416.9219,435 L424.3125,435 L424.3125,437.2813 L421.8438,437.2813 L421.8438,445.7344 L424.3125,445.7344 L424.3125,448 L416.9219,448 L416.9219,445.7344 L419.3906,445.7344 L419.3906,437.2813 L416.9219,437.2813 Z " fill="#000000"/><text fill="#000000" font-family="sans-serif" font-size="12" font-style="italic" lengthAdjust="spacing" textLength="63" x="434.5" y="445.6543">Document</text><line style="stroke:#A80036;stroke-width:1.5;" x1="406.5" x2="499.5" y1="457.5" y2="457.5"/><line style="stroke:#A80036;stroke-width:1.5;" x1="406.5" x2="499.5" y1="465.5" y2="465.5"/><!--MD5=[e4f4235c7d8ad4e56e1674173a79890f]
class XalanDocument--><rect codeLine="31" fill="#FEFECE" height="48" id="XalanDocument" style="stroke:#A80036;stroke-width:1.5;" width="128" x="306" y="541"/><ellipse cx="321" cy="557" fill="#ADD1B2" rx="11" ry="11" style="stroke:#A80036;stroke-width:1.0;"/><path d="M323.4688,562.875 Q322.8906,563.1875 322.25,563.3438 Q321.6094,563.5 320.9063,563.5 Q318.4063,563.5 317.0781,561.8281 Q315.7656,560.1563 315.7656,557 Q315.7656,553.8438 317.0781,552.1719 Q318.4063,550.5 320.9063,550.5 Q321.6094,550.5 322.25,550.6563 Q322.9063,550.8125 323.4688,551.125 L323.4688,553.9219 Q322.8438,553.3594 322.25,553.0938 Q321.6563,552.8125 321.0313,552.8125 Q319.6875,552.8125 319,553.875 Q318.3125,554.9375 318.3125,557 Q318.3125,559.0781 319,560.1406 Q319.6875,561.1875 321.0313,561.1875 Q321.6563,561.1875 322.25,560.9219 Q322.8438,560.6563 323.4688,560.0781 L323.4688,562.875 Z " fill="#000000"/><text fill="#000000" font-family="sans-serif" font-size="12" lengthAdjust="spacing" textLength="96" x="335" y="561.1543">XalanDocument</text><line style="stroke:#A80036;stroke-width:1.5;" x1="307" x2="433" y1="573" y2="573"/><line style="stroke:#A80036;stroke-width:1.5;" x1="307" x2="433" y1="581" y2="581"/><!--MD5=[777f1cdf57795f682e0ef4ad76132901]
class XercesDocument--><rect codeLine="32" fill="#FEFECE" height="48" id="XercesDocument" style="stroke:#A80036;stroke-width:1.5;" width="135" x="469.5" y="541"/><ellipse cx="484.5" cy="557" fill="#ADD1B2" rx="11" ry="11" style="stroke:#A80036;stroke-width:1.0;"/><path d="M486.9688,562.875 Q486.3906,563.1875 485.75,563.3438 Q485.1094,563.5 484.4063,563.5 Q481.9063,563.5 480.5781,561.8281 Q479.2656,560.1563 479.2656,557 Q479.2656,553.8438 480.5781,552.1719 Q481.9063,550.5 484.4063,550.5 Q485.1094,550.5 485.75,550.6563 Q486.4063,550.8125 486.9688,551.125 L486.9688,553.9219 Q486.3438,553.3594 485.75,553.0938 Q485.1563,552.8125 484.5313,552.8125 Q483.1875,552.8125 482.5,553.875 Q481.8125,554.9375 481.8125,557 Q481.8125,559.0781 482.5,560.1406 Q483.1875,561.1875 484.5313,561.1875 Q485.1563,561.1875 485.75,560.9219 Q486.3438,560.6563 486.9688,560.0781 L486.9688,562.875 Z " fill="#000000"/><text fill="#000000" font-family="sans-serif" font-size="12" lengthAdjust="spacing" textLength="103" x="498.5" y="561.1543">XercesDocument</text><line style="stroke:#A80036;stroke-width:1.5;" x1="470.5" x2="603.5" y1="573" y2="573"/><line style="stroke:#A80036;stroke-width:1.5;" x1="470.5" x2="603.5" y1="581" y2="581"/><!--MD5=[c203b766f9bc92a54b9b9c5e24ab4ca9]
reverse link DocumentBuilderFactory to XalanDocumentBuilderFactory--><path d="M328.5307,163.5063 C280.9479,192.0037 218.5475,229.3754 175.2415,255.3114 " fill="none" id="DocumentBuilderFactory-backto-XalanDocumentBuilderFactory" style="stroke:#A80036;stroke-width:1.0;"/><polygon fill="none" points="325.2162,157.332,345.971,153.0613,332.4095,169.3428,325.2162,157.332" style="stroke:#A80036;stroke-width:1.0;"/><!--MD5=[7fed9269474ef7b682ed77dc0b047ecd]
reverse link DocumentBuilderFactory to XercesDocumentBuilderFactory--><path d="M397,173.412 C397,200.2801 397,232.3556 397,255.3848 " fill="none" id="DocumentBuilderFactory-backto-XercesDocumentBuilderFactory" style="stroke:#A80036;stroke-width:1.0;"/><polygon fill="none" points="390.0001,173.2531,397,153.2531,404.0001,173.2531,390.0001,173.2531" style="stroke:#A80036;stroke-width:1.0;"/><!--MD5=[d360b54670482065b7202ab92b910ca3]
link DocumentBuilderFactory to DocumentBuilder--><path codeLine="12" d="M438.8699,153.0613 C469.5338,175.4432 511.9331,206.3909 548.1078,232.7952 " fill="none" id="DocumentBuilderFactory-to-DocumentBuilder" style="stroke:#A80036;stroke-width:1.0;"/><polygon fill="#A80036" points="552.4873,235.9918,547.5761,227.4548,548.4487,233.0439,542.8596,233.9165,552.4873,235.9918" style="stroke:#A80036;stroke-width:1.0;"/><text fill="#000000" font-family="sans-serif" font-size="13" lengthAdjust="spacing" textLength="64" x="504" y="196.0669">«creates»</text><!--MD5=[82f002c0994e9f9b3e8b8ea0df64edb5]
reverse link DocumentBuilder to XalanDocumentBuilder--><path d="M621,362.3587 C621,382.3715 621,402.8169 621,418.8698 " fill="none" id="DocumentBuilder-backto-XalanDocumentBuilder" style="stroke:#A80036;stroke-width:1.0;"/><polygon fill="none" points="614.0001,362.2675,621,342.2674,628.0001,362.2674,614.0001,362.2675" style="stroke:#A80036;stroke-width:1.0;"/><!--MD5=[9167e8cf678b4069993682cb6d0c35fa]
reverse link DocumentBuilder to XercesDocumentBuilder--><path d="M705.7985,352.3376 C735.246,375.3742 766.8592,400.1051 790.8219,418.8511 " fill="none" id="DocumentBuilder-backto-XercesDocumentBuilder" style="stroke:#A80036;stroke-width:1.0;"/><polygon fill="none" points="701.1633,357.599,689.7239,339.7625,709.7895,346.5722,701.1633,357.599" style="stroke:#A80036;stroke-width:1.0;"/><!--MD5=[3ce6d568df43ad1f462b56f3626d03cd]
link DocumentBuilder to Document--><path codeLine="28" d="M563.1839,342.2674 C535.7283,368.9876 504.126,399.7434 481.8262,421.4459 " fill="none" id="DocumentBuilder-to-Document" style="stroke:#A80036;stroke-width:1.0;"/><polygon fill="#A80036" points="478.052,425.119,487.2915,421.7086,481.6352,421.6318,481.712,415.9755,478.052,425.119" style="stroke:#A80036;stroke-width:1.0;"/><text fill="#000000" font-family="sans-serif" font-size="13" lengthAdjust="spacing" textLength="64" x="533" y="385.0669">«creates»</text><!--MD5=[afe192bf4e6cb53759ac06f011afdf88]
link Document to XalanDocument--><path codeLine="33" d="M435.6005,473.7126 C425.0316,488.4199 411.2713,507.5682 399.0844,524.5272 " fill="none" id="Document-to-XalanDocument" style="stroke:#A80036;stroke-width:1.0;"/><polygon fill="none" points="404.7324,528.6629,387.3766,540.8193,393.3634,520.493,404.7324,528.6629" style="stroke:#A80036;stroke-width:1.0;"/><!--MD5=[512a2b6923e4bff4c499f4a4c531997e]
link Document to XercesDocument--><path codeLine="34" d="M470.6092,473.7126 C481.3054,488.4199 495.2315,507.5682 507.5652,524.5272 " fill="none" id="Document-to-XercesDocument" style="stroke:#A80036;stroke-width:1.0;"/><polygon fill="none" points="513.3117,520.5273,519.414,540.8193,501.9894,528.7618,513.3117,520.5273" style="stroke:#A80036;stroke-width:1.0;"/><!--MD5=[d3016ebb52c6e38c22c83683eec122b5]
@startuml

class DocumentBuilderFactory {
    newBuilder(): DocumentBuilder
}
class XalanDocumentBuilderFactory extends DocumentBuilderFactory {
    + newBuilder(): XalanDocumentBuilder
}
class XercesDocumentBuilderFactory extends DocumentBuilderFactory {
    + newBuilder(): XercesDocumentBuilder
}
note top of DocumentBuilderFactory : Abstract Factory
DocumentBuilderFactory -down-> DocumentBuilder : <<creates>>

class DocumentBuilder {
    + addElementNode()
    + addAttribute()
    + addTextNode()

    + build(): Document
}
class XalanDocumentBuilder extends DocumentBuilder {
    + build(): XalanDocument
}
class XercesDocumentBuilder extends DocumentBuilder {
    + build(): XercesDocument
}
note top of DocumentBuilder : Builder
DocumentBuilder - -> Document : <<creates>>

interface Document
class XalanDocument
class XercesDocument
XalanDocument <|-up- Document
XercesDocument <|-up- Document

skinparam Shadowing false

@enduml

PlantUML version 1.2021.01(Tue Feb 02 10:55:08 MSK 2021)
(GPL source distribution)
Java Runtime: OpenJDK Runtime Environment
JVM: OpenJDK 64-Bit Server VM
Default Encoding: UTF-8
Language: en
Country: US
--></g></svg>