<?xml version="1.0" encoding="UTF-8" standalone="no"?><svg xmlns="http://www.w3.org/2000/svg" xmlns:xlink="http://www.w3.org/1999/xlink" contentScriptType="application/ecmascript" contentStyleType="text/css" height="278.6px" preserveAspectRatio="none" style="width:968px;height:278px;" version="1.1" viewBox="0 0 968 278" width="968.8px" zoomAndPan="magnify"><defs/><g><!--MD5=[023ecf6702e3ca2ce47ae747eafb20f1]
class Iterator--><rect codeLine="2" fill="#FEFECE" height="103.0531" id="Iterator" style="stroke:#A80036;stroke-width:2.0999999999999996;" width="186.2" x="224.7" y="14"/><ellipse cx="274.05" cy="36.4" fill="#B4A7E5" rx="15.4" ry="15.4" style="stroke:#A80036;stroke-width:1.4;"/><path d="M269.0406,30.4938 L269.0406,27.3 L279.3875,27.3 L279.3875,30.4938 L275.9313,30.4938 L275.9313,42.3281 L279.3875,42.3281 L279.3875,45.5 L269.0406,45.5 L269.0406,42.3281 L272.4969,42.3281 L272.4969,30.4938 L269.0406,30.4938 Z " fill="#000000"/><text fill="#000000" font-family="sans-serif" font-size="16.8" font-style="italic" lengthAdjust="spacing" textLength="63" x="299.95" y="42.216">Iterator</text><rect fill="#FFFFFF" height="22.3563" style="stroke:#000000;stroke-width:1.4;stroke-dasharray:2.0,2.0;" width="12.6" x="402.5" y="9.8"/><text fill="#000000" font-family="sans-serif" font-size="16.8" font-style="italic" lengthAdjust="spacing" textLength="9.8" x="403.9" y="26.7941">T</text><line style="stroke:#A80036;stroke-width:2.0999999999999996;" x1="226.1" x2="409.5" y1="58.8" y2="58.8"/><line style="stroke:#A80036;stroke-width:2.0999999999999996;" x1="226.1" x2="409.5" y1="70" y2="70"/><ellipse cx="240.1" cy="85.4" fill="#84BE84" rx="4.2" ry="4.2" style="stroke:#038048;stroke-width:1.4;"/><text fill="#000000" font-family="sans-serif" font-size="15.4" lengthAdjust="spacing" textLength="149.8" x="252.7" y="89.8946">hasNext(): boolean</text><ellipse cx="240.1" cy="103.3266" fill="#84BE84" rx="4.2" ry="4.2" style="stroke:#038048;stroke-width:1.4;"/><text fill="#000000" font-family="sans-serif" font-size="15.4" lengthAdjust="spacing" textLength="67.2" x="252.7" y="107.8212">next(): T</text><!--MD5=[898628aab8fe24ca1831bbbda148c2c0]
class ArrayListIterator--><rect codeLine="7" fill="#FEFECE" height="67.2" id="ArrayListIterator" style="stroke:#A80036;stroke-width:2.0999999999999996;" width="182" x="9.8" y="201.6"/><ellipse cx="30.8" cy="224" fill="#ADD1B2" rx="15.4" ry="15.4" style="stroke:#A80036;stroke-width:1.4;"/><path d="M34.2562,232.225 Q33.4469,232.6625 32.55,232.8813 Q31.6531,233.1 30.6688,233.1 Q27.1688,233.1 25.3094,230.7594 Q23.4719,228.4188 23.4719,224 Q23.4719,219.5812 25.3094,217.2406 Q27.1688,214.9 30.6688,214.9 Q31.6531,214.9 32.55,215.1187 Q33.4688,215.3375 34.2562,215.775 L34.2562,219.6906 Q33.3813,218.9031 32.55,218.5313 Q31.7187,218.1375 30.8437,218.1375 Q28.9625,218.1375 28,219.625 Q27.0375,221.1125 27.0375,224 Q27.0375,226.9094 28,228.3969 Q28.9625,229.8625 30.8437,229.8625 Q31.7187,229.8625 32.55,229.4906 Q33.3813,229.1187 34.2562,228.3094 L34.2562,232.225 Z " fill="#000000"/><text fill="#000000" font-family="sans-serif" font-size="16.8" lengthAdjust="spacing" textLength="137.2" x="50.4" y="229.816">ArrayListIterator</text><line style="stroke:#A80036;stroke-width:2.0999999999999996;" x1="11.2" x2="190.4" y1="246.4" y2="246.4"/><line style="stroke:#A80036;stroke-width:2.0999999999999996;" x1="11.2" x2="190.4" y1="257.6" y2="257.6"/><!--MD5=[98bc0cc81ec4a6d2f42cca04ae5b4024]
class ArrayIterator--><rect codeLine="8" fill="#FEFECE" height="67.2" id="ArrayIterator" style="stroke:#A80036;stroke-width:2.0999999999999996;" width="152.6" x="241.5" y="201.6"/><ellipse cx="262.5" cy="224" fill="#ADD1B2" rx="15.4" ry="15.4" style="stroke:#A80036;stroke-width:1.4;"/><path d="M265.9563,232.225 Q265.1469,232.6625 264.25,232.8813 Q263.3531,233.1 262.3688,233.1 Q258.8688,233.1 257.0094,230.7594 Q255.1719,228.4188 255.1719,224 Q255.1719,219.5812 257.0094,217.2406 Q258.8688,214.9 262.3688,214.9 Q263.3531,214.9 264.25,215.1187 Q265.1688,215.3375 265.9563,215.775 L265.9563,219.6906 Q265.0813,218.9031 264.25,218.5313 Q263.4188,218.1375 262.5438,218.1375 Q260.6625,218.1375 259.7,219.625 Q258.7375,221.1125 258.7375,224 Q258.7375,226.9094 259.7,228.3969 Q260.6625,229.8625 262.5438,229.8625 Q263.4188,229.8625 264.25,229.4906 Q265.0813,229.1187 265.9563,228.3094 L265.9563,232.225 Z " fill="#000000"/><text fill="#000000" font-family="sans-serif" font-size="16.8" lengthAdjust="spacing" textLength="107.8" x="282.1" y="229.816">ArrayIterator</text><line style="stroke:#A80036;stroke-width:2.0999999999999996;" x1="242.9" x2="392.7" y1="246.4" y2="246.4"/><line style="stroke:#A80036;stroke-width:2.0999999999999996;" x1="242.9" x2="392.7" y1="257.6" y2="257.6"/><!--MD5=[64df0ae76b8056f16859ea05569d6026]
class MapKeyIterator--><rect codeLine="9" fill="#FEFECE" height="67.2" id="MapKeyIterator" style="stroke:#A80036;stroke-width:2.0999999999999996;" width="173.6" x="443.8" y="201.6"/><ellipse cx="464.8" cy="224" fill="#ADD1B2" rx="15.4" ry="15.4" style="stroke:#A80036;stroke-width:1.4;"/><path d="M468.2562,232.225 Q467.4469,232.6625 466.55,232.8813 Q465.6531,233.1 464.6688,233.1 Q461.1688,233.1 459.3094,230.7594 Q457.4719,228.4188 457.4719,224 Q457.4719,219.5812 459.3094,217.2406 Q461.1688,214.9 464.6688,214.9 Q465.6531,214.9 466.55,215.1187 Q467.4687,215.3375 468.2562,215.775 L468.2562,219.6906 Q467.3812,218.9031 466.55,218.5313 Q465.7187,218.1375 464.8437,218.1375 Q462.9625,218.1375 462,219.625 Q461.0375,221.1125 461.0375,224 Q461.0375,226.9094 462,228.3969 Q462.9625,229.8625 464.8437,229.8625 Q465.7187,229.8625 466.55,229.4906 Q467.3812,229.1187 468.2562,228.3094 L468.2562,232.225 Z " fill="#000000"/><text fill="#000000" font-family="sans-serif" font-size="16.8" lengthAdjust="spacing" textLength="128.8" x="484.4" y="229.816">MapKeyIterator</text><line style="stroke:#A80036;stroke-width:2.0999999999999996;" x1="445.2" x2="616" y1="246.4" y2="246.4"/><line style="stroke:#A80036;stroke-width:2.0999999999999996;" x1="445.2" x2="616" y1="257.6" y2="257.6"/><!--MD5=[0a2b68f28df32321a481562e22b8044b]
class Spliterator--><rect codeLine="11" fill="#FEFECE" height="103.0531" id="Spliterator" style="stroke:#A80036;stroke-width:2.0999999999999996;" width="366.8" x="586.6" y="14"/><ellipse cx="712.25" cy="36.4" fill="#B4A7E5" rx="15.4" ry="15.4" style="stroke:#A80036;stroke-width:1.4;"/><path d="M707.2406,30.4938 L707.2406,27.3 L717.5875,27.3 L717.5875,30.4938 L714.1312,30.4938 L714.1312,42.3281 L717.5875,42.3281 L717.5875,45.5 L707.2406,45.5 L707.2406,42.3281 L710.6969,42.3281 L710.6969,30.4938 L707.2406,30.4938 Z " fill="#000000"/><text fill="#000000" font-family="sans-serif" font-size="16.8" font-style="italic" lengthAdjust="spacing" textLength="88.2" x="740.95" y="42.216">Spliterator</text><rect fill="#FFFFFF" height="22.3563" style="stroke:#000000;stroke-width:1.4;stroke-dasharray:2.0,2.0;" width="12.6" x="945" y="9.8"/><text fill="#000000" font-family="sans-serif" font-size="16.8" font-style="italic" lengthAdjust="spacing" textLength="9.8" x="946.4" y="26.7941">T</text><line style="stroke:#A80036;stroke-width:2.0999999999999996;" x1="588" x2="952" y1="58.8" y2="58.8"/><line style="stroke:#A80036;stroke-width:2.0999999999999996;" x1="588" x2="952" y1="70" y2="70"/><ellipse cx="602" cy="85.4" fill="#84BE84" rx="4.2" ry="4.2" style="stroke:#038048;stroke-width:1.4;"/><text fill="#000000" font-family="sans-serif" font-size="15.4" lengthAdjust="spacing" textLength="176.4" x="614.6" y="89.8946">tryAdvance(): boolean</text><ellipse cx="602" cy="103.3266" fill="#84BE84" rx="4.2" ry="4.2" style="stroke:#038048;stroke-width:1.4;"/><text fill="#000000" font-family="sans-serif" font-size="15.4" lengthAdjust="spacing" textLength="330.4" x="614.6" y="107.8212">forEachRemaining(action: Consumer&lt;T&gt;)</text><!--MD5=[79393f8c848841d83c61b7f3da50842b]
class ArrayListSpliterator--><rect codeLine="16" fill="#FEFECE" height="67.2" id="ArrayListSpliterator" style="stroke:#A80036;stroke-width:2.0999999999999996;" width="207.2" x="666.4" y="201.6"/><ellipse cx="687.4" cy="224" fill="#ADD1B2" rx="15.4" ry="15.4" style="stroke:#A80036;stroke-width:1.4;"/><path d="M690.8562,232.225 Q690.0469,232.6625 689.15,232.8813 Q688.2531,233.1 687.2688,233.1 Q683.7688,233.1 681.9094,230.7594 Q680.0719,228.4188 680.0719,224 Q680.0719,219.5812 681.9094,217.2406 Q683.7688,214.9 687.2688,214.9 Q688.2531,214.9 689.15,215.1187 Q690.0687,215.3375 690.8562,215.775 L690.8562,219.6906 Q689.9812,218.9031 689.15,218.5313 Q688.3187,218.1375 687.4437,218.1375 Q685.5625,218.1375 684.6,219.625 Q683.6375,221.1125 683.6375,224 Q683.6375,226.9094 684.6,228.3969 Q685.5625,229.8625 687.4437,229.8625 Q688.3187,229.8625 689.15,229.4906 Q689.9812,229.1187 690.8562,228.3094 L690.8562,232.225 Z " fill="#000000"/><text fill="#000000" font-family="sans-serif" font-size="16.8" lengthAdjust="spacing" textLength="162.4" x="707" y="229.816">ArrayListSpliterator</text><line style="stroke:#A80036;stroke-width:2.0999999999999996;" x1="667.8" x2="872.2" y1="246.4" y2="246.4"/><line style="stroke:#A80036;stroke-width:2.0999999999999996;" x1="667.8" x2="872.2" y1="257.6" y2="257.6"/><!--MD5=[c1e7abcd48022631df0b82264da890e7]
reverse link Iterator to ArrayListIterator--><path d="M233.1,146.0078 C233.1,146.0078 233.1,235.2 233.1,235.2 C233.1,235.2 214.881,235.2 191.9646,235.2 " fill="none" id="Iterator-backto-ArrayListIterator" style="stroke:#A80036;stroke-width:1.4;stroke-dasharray:7.0,7.0;"/><polygon fill="none" points="223.3001,146.0078,233.1,118.0078,242.9001,146.0078,223.3001,146.0078" style="stroke:#A80036;stroke-width:1.4;"/><!--MD5=[765a72dfde97422fc5b325bc907ac973]
reverse link Iterator to ArrayIterator--><path d="M317.8,146.0078 C317.8,146.0078 317.8,201.5864 317.8,201.5864 " fill="none" id="Iterator-backto-ArrayIterator" style="stroke:#A80036;stroke-width:1.4;stroke-dasharray:7.0,7.0;"/><polygon fill="none" points="308.0001,146.0078,317.8,118.0078,327.6001,146.0078,308.0001,146.0078" style="stroke:#A80036;stroke-width:1.4;"/><!--MD5=[1efec2c0d1ffc93ca89d2647af16481c]
reverse link Iterator to MapKeyIterator--><path d="M402.5,146.0078 C402.5,146.0078 402.5,235.2 402.5,235.2 C402.5,235.2 420.8914,235.2 443.7367,235.2 " fill="none" id="Iterator-backto-MapKeyIterator" style="stroke:#A80036;stroke-width:1.4;stroke-dasharray:7.0,7.0;"/><polygon fill="none" points="392.7001,146.0078,402.5,118.0078,412.3001,146.0078,392.7001,146.0078" style="stroke:#A80036;stroke-width:1.4;"/><!--MD5=[0a15af09d287c4b437900deb605f82b7]
reverse link Spliterator to ArrayListSpliterator--><path d="M770,146.0078 C770,146.0078 770,201.5864 770,201.5864 " fill="none" id="Spliterator-backto-ArrayListSpliterator" style="stroke:#A80036;stroke-width:1.4;stroke-dasharray:7.0,7.0;"/><polygon fill="none" points="760.2001,146.0078,770,118.0078,779.8001,146.0078,760.2001,146.0078" style="stroke:#A80036;stroke-width:1.4;"/><!--MD5=[a34ec0ce4fb2c0dbdd4cf4793190fc37]
@startuml

interface Iterator<T> {
  + hasNext(): boolean
  + next(): T
}

class ArrayListIterator implements Iterator
class ArrayIterator implements Iterator
class MapKeyIterator implements Iterator

interface Spliterator<T> {
  + tryAdvance(): boolean
  + forEachRemaining(action: Consumer<T>)
}

class ArrayListSpliterator implements Spliterator

skinparam linetype ortho
skinparam Shadowing false

@enduml

PlantUML version 1.2021.01(Tue Feb 02 10:55:08 MSK 2021)
(GPL source distribution)
Java Runtime: OpenJDK Runtime Environment
JVM: OpenJDK 64-Bit Server VM
Default Encoding: UTF-8
Language: en
Country: US
--></g></svg>