<?xml version="1.0" encoding="UTF-8" standalone="no"?><svg xmlns="http://www.w3.org/2000/svg" xmlns:xlink="http://www.w3.org/1999/xlink" contentScriptType="application/ecmascript" contentStyleType="text/css" height="100px" preserveAspectRatio="none" style="width:536px;height:100px;" version="1.1" viewBox="0 0 536 100" width="536px" zoomAndPan="magnify"><defs/><g><!--MD5=[c11be9bec5de8c51ffe61f9e862967e2]
class EventObject--><rect codeLine="2" fill="#FEFECE" height="48" id="EventObject" style="stroke:#A80036;stroke-width:1.5;" width="106" x="423.5" y="26"/><ellipse cx="438.5" cy="42" fill="#ADD1B2" rx="11" ry="11" style="stroke:#A80036;stroke-width:1.0;"/><path d="M440.9688,47.875 Q440.3906,48.1875 439.75,48.3438 Q439.1094,48.5 438.4063,48.5 Q435.9063,48.5 434.5781,46.8281 Q433.2656,45.1563 433.2656,42 Q433.2656,38.8438 434.5781,37.1719 Q435.9063,35.5 438.4063,35.5 Q439.1094,35.5 439.75,35.6563 Q440.4063,35.8125 440.9688,36.125 L440.9688,38.9219 Q440.3438,38.3594 439.75,38.0938 Q439.1563,37.8125 438.5313,37.8125 Q437.1875,37.8125 436.5,38.875 Q435.8125,39.9375 435.8125,42 Q435.8125,44.0781 436.5,45.1406 Q437.1875,46.1875 438.5313,46.1875 Q439.1563,46.1875 439.75,45.9219 Q440.3438,45.6563 440.9688,45.0781 L440.9688,47.875 Z " fill="#000000"/><text fill="#000000" font-family="sans-serif" font-size="12" lengthAdjust="spacing" textLength="74" x="452.5" y="46.1543">EventObject</text><line style="stroke:#A80036;stroke-width:1.5;" x1="424.5" x2="528.5" y1="58" y2="58"/><line style="stroke:#A80036;stroke-width:1.5;" x1="424.5" x2="528.5" y1="66" y2="66"/><!--MD5=[c0bd9f44073f1a51428d87d6a9cf071b]
class Observable--><rect codeLine="4" fill="#FEFECE" height="86.4141" id="Observable" style="stroke:#A80036;stroke-width:1.5;" width="183" x="7" y="7"/><ellipse cx="60.75" cy="23" fill="#ADD1B2" rx="11" ry="11" style="stroke:#A80036;stroke-width:1.0;"/><path d="M63.2188,28.875 Q62.6406,29.1875 62,29.3438 Q61.3594,29.5 60.6563,29.5 Q58.1563,29.5 56.8281,27.8281 Q55.5156,26.1563 55.5156,23 Q55.5156,19.8438 56.8281,18.1719 Q58.1563,16.5 60.6563,16.5 Q61.3594,16.5 62,16.6563 Q62.6563,16.8125 63.2188,17.125 L63.2188,19.9219 Q62.5938,19.3594 62,19.0938 Q61.4063,18.8125 60.7813,18.8125 Q59.4375,18.8125 58.75,19.875 Q58.0625,20.9375 58.0625,23 Q58.0625,25.0781 58.75,26.1406 Q59.4375,27.1875 60.7813,27.1875 Q61.4063,27.1875 62,26.9219 Q62.5938,26.6563 63.2188,26.0781 L63.2188,28.875 Z " fill="#000000"/><text fill="#000000" font-family="sans-serif" font-size="12" lengthAdjust="spacing" textLength="67" x="81.25" y="27.1543">Observable</text><line style="stroke:#A80036;stroke-width:1.5;" x1="8" x2="189" y1="39" y2="39"/><line style="stroke:#A80036;stroke-width:1.5;" x1="8" x2="189" y1="47" y2="47"/><ellipse cx="18" cy="58" fill="#84BE84" rx="3" ry="3" style="stroke:#038048;stroke-width:1.0;"/><text fill="#000000" font-family="sans-serif" font-size="11" lengthAdjust="spacing" textLength="134" x="27" y="61.2104">addListener(o: Listener)</text><ellipse cx="18" cy="70.8047" fill="#84BE84" rx="3" ry="3" style="stroke:#038048;stroke-width:1.0;"/><text fill="#000000" font-family="sans-serif" font-size="11" lengthAdjust="spacing" textLength="157" x="27" y="74.0151">removeListener(o: Listener)</text><ellipse cx="18" cy="83.6094" fill="#84BE84" rx="3" ry="3" style="stroke:#038048;stroke-width:1.0;"/><text fill="#000000" font-family="sans-serif" font-size="11" lengthAdjust="spacing" textLength="123" x="27" y="86.8198">notify(e: EventObject)</text><!--MD5=[085076096658226fe7d3ac7a26d9b629]
class Listener--><rect codeLine="10" fill="#FEFECE" height="60.8047" id="Listener" style="stroke:#A80036;stroke-width:1.5;" width="163" x="225" y="19.5"/><ellipse cx="278.25" cy="35.5" fill="#ADD1B2" rx="11" ry="11" style="stroke:#A80036;stroke-width:1.0;"/><path d="M280.7188,41.375 Q280.1406,41.6875 279.5,41.8438 Q278.8594,42 278.1563,42 Q275.6563,42 274.3281,40.3281 Q273.0156,38.6563 273.0156,35.5 Q273.0156,32.3438 274.3281,30.6719 Q275.6563,29 278.1563,29 Q278.8594,29 279.5,29.1563 Q280.1563,29.3125 280.7188,29.625 L280.7188,32.4219 Q280.0938,31.8594 279.5,31.5938 Q278.9063,31.3125 278.2813,31.3125 Q276.9375,31.3125 276.25,32.375 Q275.5625,33.4375 275.5625,35.5 Q275.5625,37.5781 276.25,38.6406 Q276.9375,39.6875 278.2813,39.6875 Q278.9063,39.6875 279.5,39.4219 Q280.0938,39.1563 280.7188,38.5781 L280.7188,41.375 Z " fill="#000000"/><text fill="#000000" font-family="sans-serif" font-size="12" lengthAdjust="spacing" textLength="48" x="298.75" y="39.6543">Listener</text><line style="stroke:#A80036;stroke-width:1.5;" x1="226" x2="387" y1="51.5" y2="51.5"/><line style="stroke:#A80036;stroke-width:1.5;" x1="226" x2="387" y1="59.5" y2="59.5"/><ellipse cx="236" cy="70.5" fill="#84BE84" rx="3" ry="3" style="stroke:#038048;stroke-width:1.0;"/><text fill="#000000" font-family="sans-serif" font-size="11" lengthAdjust="spacing" textLength="137" x="245" y="73.7104">onEvent(e: EventObject)</text><!--MD5=[58683437042fe86e88fa60152a32b68b]
link Observable to Listener--><path codeLine="14" d="M202.0345,50 C202.0345,50 211.7372,50 211.7372,50 " fill="none" id="Observable-Listener" style="stroke:#A80036;stroke-width:1.0;"/><polygon fill="#A80036" points="224.7372,50,215.7372,46,219.7372,50,215.7372,54,224.7372,50" style="stroke:#A80036;stroke-width:1.0;"/><line style="stroke:#A80036;stroke-width:1.0;" x1="219.7372" x2="211.7372" y1="50" y2="49.9999"/><polygon fill="#A80036" points="190.0345,50,196.0345,54,202.0345,50,196.0345,46,190.0345,50" style="stroke:#A80036;stroke-width:1.0;"/><text fill="#000000" font-family="sans-serif" font-size="13" lengthAdjust="spacing" textLength="7" x="209.877" y="46.3906">*</text><text fill="#000000" font-family="sans-serif" font-size="13" lengthAdjust="spacing" textLength="7" x="197.9045" y="46.4342">*</text><!--MD5=[e6ea7c0914d549b5c2457c744233d697]
link Listener to EventObject--><path codeLine="15" d="M388.0145,50 C388.0145,50 418.1373,50 418.1373,50 " fill="none" id="Listener-to-EventObject" style="stroke:#A80036;stroke-width:1.0;"/><polygon fill="#A80036" points="423.1373,50,414.1373,46,418.1373,50,414.1373,54,423.1373,50" style="stroke:#A80036;stroke-width:1.0;"/><!--MD5=[29da0c861326311a61ec1dc47c1237d3]
link Observable to EventObject--><path codeLine="16" d="M190.0033,87 C301.8734,87 476.5,87 476.5,87 C476.5,87 476.5,79.0592 476.5,79.0592 " fill="none" id="Observable-to-EventObject" style="stroke:#A80036;stroke-width:1.0;"/><polygon fill="#A80036" points="476.5,74.0592,472.5,83.0592,476.5,79.0592,480.5,83.0592,476.5,74.0592" style="stroke:#A80036;stroke-width:1.0;"/><!--MD5=[d78fb1dbd617500922cae1c3b65d78a7]
@startuml

class EventObject

class Observable {
  + addListener(o: Listener)
  + removeListener(o: Listener)
  + notify(e: EventObject)
}

class Listener {
  + onEvent(e: EventObject)
}

Observable "*" *-> "*" Listener
Listener -> EventObject
Observable -> EventObject

skinparam linetype ortho
skinparam Shadowing false

@enduml

PlantUML version 1.2021.01(Tue Feb 02 10:55:08 MSK 2021)
(GPL source distribution)
Java Runtime: OpenJDK Runtime Environment
JVM: OpenJDK 64-Bit Server VM
Default Encoding: UTF-8
Language: en
Country: US
--></g></svg>