<?xml version="1.0" encoding="UTF-8" standalone="no"?><svg xmlns="http://www.w3.org/2000/svg" xmlns:xlink="http://www.w3.org/1999/xlink" contentScriptType="application/ecmascript" contentStyleType="text/css" height="446.6px" preserveAspectRatio="none" style="width:526px;height:446px;" version="1.1" viewBox="0 0 526 446" width="526.4px" zoomAndPan="magnify"><defs/><g><!--MD5=[dbb8b4f13c7b21394f9d757e58732f45]
class Service--><rect codeLine="2" fill="#FEFECE" height="85.1266" id="Service" style="stroke:#A80036;stroke-width:2.0999999999999996;" width="193.2" x="184.1" y="9.8"/><ellipse cx="244.16" cy="32.2" fill="#B4A7E5" rx="15.4" ry="15.4" style="stroke:#A80036;stroke-width:1.4;"/><path d="M239.1506,26.2938 L239.1506,23.1 L249.4975,23.1 L249.4975,26.2938 L246.0413,26.2938 L246.0413,38.1281 L249.4975,38.1281 L249.4975,41.3 L239.1506,41.3 L239.1506,38.1281 L242.6069,38.1281 L242.6069,26.2938 L239.1506,26.2938 Z " fill="#000000"/><text fill="#000000" font-family="sans-serif" font-size="16.8" font-style="italic" lengthAdjust="spacing" textLength="61.6" x="272.44" y="38.016">Service</text><line style="stroke:#A80036;stroke-width:2.0999999999999996;" x1="185.5" x2="375.9" y1="54.6" y2="54.6"/><line style="stroke:#A80036;stroke-width:2.0999999999999996;" x1="185.5" x2="375.9" y1="65.8" y2="65.8"/><ellipse cx="199.5" cy="81.2" fill="#84BE84" rx="4.2" ry="4.2" style="stroke:#038048;stroke-width:1.4;"/><text fill="#000000" font-family="sans-serif" font-size="15.4" lengthAdjust="spacing" textLength="156.8" x="212.1" y="85.6946">call(a: int, x: String)</text><!--MD5=[1861adbaaec037ee9ef3bab2477c9805]
class RemoteServiceStub--><rect codeLine="6" fill="#FEFECE" height="138.9063" id="RemoteServiceStub" style="stroke:#A80036;stroke-width:2.0999999999999996;" width="264.6" x="9.8" y="179.2"/><ellipse cx="54.74" cy="201.6" fill="#ADD1B2" rx="15.4" ry="15.4" style="stroke:#A80036;stroke-width:1.4;"/><path d="M58.1963,209.825 Q57.3869,210.2625 56.49,210.4813 Q55.5931,210.7 54.6088,210.7 Q51.1088,210.7 49.2494,208.3594 Q47.4119,206.0187 47.4119,201.6 Q47.4119,197.1812 49.2494,194.8406 Q51.1088,192.5 54.6088,192.5 Q55.5931,192.5 56.49,192.7188 Q57.4088,192.9375 58.1963,193.375 L58.1963,197.2906 Q57.3213,196.5031 56.49,196.1313 Q55.6588,195.7375 54.7838,195.7375 Q52.9025,195.7375 51.94,197.225 Q50.9775,198.7125 50.9775,201.6 Q50.9775,204.5094 51.94,205.9969 Q52.9025,207.4625 54.7838,207.4625 Q55.6588,207.4625 56.49,207.0906 Q57.3213,206.7188 58.1963,205.9094 L58.1963,209.825 Z " fill="#000000"/><text fill="#000000" font-family="sans-serif" font-size="16.8" lengthAdjust="spacing" textLength="166.6" x="79.66" y="207.416">RemoteServiceStub</text><line style="stroke:#A80036;stroke-width:2.0999999999999996;" x1="11.2" x2="273" y1="224" y2="224"/><rect fill="none" height="8.4" style="stroke:#C82930;stroke-width:1.4;" width="8.4" x="21" y="235.2"/><text fill="#000000" font-family="sans-serif" font-size="15.4" lengthAdjust="spacing" textLength="137.2" x="37.8" y="243.8946">channel: Channel</text><rect fill="none" height="8.4" style="stroke:#C82930;stroke-width:1.4;" width="8.4" x="21" y="253.1266"/><text fill="#000000" font-family="sans-serif" font-size="15.4" lengthAdjust="spacing" textLength="210" x="37.8" y="261.8212">method: MethodDescriptor</text><rect fill="none" height="8.4" style="stroke:#C82930;stroke-width:1.4;" width="8.4" x="21" y="271.0531"/><text fill="#000000" font-family="sans-serif" font-size="15.4" lengthAdjust="spacing" textLength="228.2" x="37.8" y="279.7478">retryStrategy: RetryStrategy</text><line style="stroke:#A80036;stroke-width:2.0999999999999996;" x1="11.2" x2="273" y1="288.9797" y2="288.9797"/><ellipse cx="25.2" cy="304.3797" fill="#84BE84" rx="4.2" ry="4.2" style="stroke:#038048;stroke-width:1.4;"/><text fill="#000000" font-family="sans-serif" font-size="15.4" lengthAdjust="spacing" textLength="156.8" x="37.8" y="308.8743">call(a: int, x: String)</text><!--MD5=[76378ecbc54aaeb2bae24a406208ef35]
class MockService--><rect codeLine="14" fill="#FEFECE" height="85.1266" id="MockService" style="stroke:#A80036;stroke-width:2.0999999999999996;" width="193.2" x="324.1" y="205.8"/><ellipse cx="364.63" cy="228.2" fill="#ADD1B2" rx="15.4" ry="15.4" style="stroke:#A80036;stroke-width:1.4;"/><path d="M368.0862,236.425 Q367.2769,236.8625 366.38,237.0812 Q365.4831,237.3 364.4988,237.3 Q360.9988,237.3 359.1394,234.9594 Q357.3019,232.6187 357.3019,228.2 Q357.3019,223.7813 359.1394,221.4406 Q360.9988,219.1 364.4988,219.1 Q365.4831,219.1 366.38,219.3188 Q367.2988,219.5375 368.0862,219.975 L368.0862,223.8906 Q367.2112,223.1031 366.38,222.7313 Q365.5488,222.3375 364.6738,222.3375 Q362.7925,222.3375 361.83,223.825 Q360.8675,225.3125 360.8675,228.2 Q360.8675,231.1094 361.83,232.5969 Q362.7925,234.0625 364.6738,234.0625 Q365.5488,234.0625 366.38,233.6906 Q367.2112,233.3188 368.0862,232.5094 L368.0862,236.425 Z " fill="#000000"/><text fill="#000000" font-family="sans-serif" font-size="16.8" lengthAdjust="spacing" textLength="105" x="388.57" y="234.016">MockService</text><line style="stroke:#A80036;stroke-width:2.0999999999999996;" x1="325.5" x2="515.9" y1="250.6" y2="250.6"/><line style="stroke:#A80036;stroke-width:2.0999999999999996;" x1="325.5" x2="515.9" y1="261.8" y2="261.8"/><ellipse cx="339.5" cy="277.2" fill="#84BE84" rx="4.2" ry="4.2" style="stroke:#038048;stroke-width:1.4;"/><text fill="#000000" font-family="sans-serif" font-size="15.4" lengthAdjust="spacing" textLength="156.8" x="352.1" y="281.6946">call(a: int, x: String)</text><path d="M354.9,401.8 L354.9,436.9859 A0,0 0 0 0 354.9,436.9859 L486.5,436.9859 A0,0 0 0 0 486.5,436.9859 L486.5,415.8 L472.5,401.8 L426.3,401.8 L420.7,291.6001 L415.1,401.8 L354.9,401.8 A0,0 0 0 0 354.9,401.8 " fill="#FBFB77" style="stroke:#A80036;stroke-width:1.4;"/><path d="M472.5,401.8 L472.5,415.8 L486.5,415.8 L472.5,401.8 " fill="#FBFB77" style="stroke:#A80036;stroke-width:1.4;"/><text fill="#000000" font-family="sans-serif" font-size="18.2" lengthAdjust="spacing" textLength="102.2" x="363.3" y="425.6937">test double</text><!--MD5=[8b504f2fb97f8cea9a5d10eca7fbafe2]
reverse link Service to RemoteServiceStub--><path d="M229.25,123.513 C229.25,123.513 229.25,179.0152 229.25,179.0152 " fill="none" id="Service-backto-RemoteServiceStub" style="stroke:#A80036;stroke-width:1.4;stroke-dasharray:7.0,7.0;"/><polygon fill="none" points="219.4501,123.513,229.25,95.513,239.0501,123.513,219.4501,123.513" style="stroke:#A80036;stroke-width:1.4;"/><!--MD5=[fc243eb6f409f21a80525983f40d01bd]
reverse link Service to MockService--><path d="M350.7,123.513 C350.7,123.513 350.7,205.5873 350.7,205.5873 " fill="none" id="Service-backto-MockService" style="stroke:#A80036;stroke-width:1.4;stroke-dasharray:7.0,7.0;"/><polygon fill="none" points="340.9001,123.513,350.7,95.513,360.5001,123.513,340.9001,123.513" style="stroke:#A80036;stroke-width:1.4;"/><!--MD5=[da47b4db98f74990dd64b682bbbf7ff8]
@startuml

interface Service {
  + call(a: int, x: String)
}

class RemoteServiceStub implements Service {
  - channel: Channel
  - method: MethodDescriptor
  - retryStrategy: RetryStrategy

  + call(a: int, x: String)
}

class MockService implements Service {
  + call(a: int, x: String)
}
note bottom of MockService: test double

skinparam linetype ortho
skinparam Shadowing false

@enduml

PlantUML version 1.2021.01(Tue Feb 02 10:55:08 MSK 2021)
(GPL source distribution)
Java Runtime: OpenJDK Runtime Environment
JVM: OpenJDK 64-Bit Server VM
Default Encoding: UTF-8
Language: en
Country: US
--></g></svg>