<?xml version="1.0" encoding="UTF-8" standalone="no"?><svg xmlns="http://www.w3.org/2000/svg" xmlns:xlink="http://www.w3.org/1999/xlink" contentScriptType="application/ecmascript" contentStyleType="text/css" height="184px" preserveAspectRatio="none" style="width:163px;height:184px;" version="1.1" viewBox="0 0 163 184" width="163px" zoomAndPan="magnify"><defs/><g><!--MD5=[44c36c82b3287b8beb2aad41aac8d5e0]
class McLeod--><rect codeLine="2" fill="#FEFECE" height="86.4141" id="McLeod" style="stroke:#A80036;stroke-width:1.5;" width="149" x="7" y="91"/><ellipse cx="54.25" cy="107" fill="#ADD1B2" rx="11" ry="11" style="stroke:#A80036;stroke-width:1.0;"/><path d="M56.7188,112.875 Q56.1406,113.1875 55.5,113.3438 Q54.8594,113.5 54.1563,113.5 Q51.6563,113.5 50.3281,111.8281 Q49.0156,110.1563 49.0156,107 Q49.0156,103.8438 50.3281,102.1719 Q51.6563,100.5 54.1563,100.5 Q54.8594,100.5 55.5,100.6563 Q56.1563,100.8125 56.7188,101.125 L56.7188,103.9219 Q56.0938,103.3594 55.5,103.0938 Q54.9063,102.8125 54.2813,102.8125 Q52.9375,102.8125 52.25,103.875 Q51.5625,104.9375 51.5625,107 Q51.5625,109.0781 52.25,110.1406 Q52.9375,111.1875 54.2813,111.1875 Q54.9063,111.1875 55.5,110.9219 Q56.0938,110.6563 56.7188,110.0781 L56.7188,112.875 Z " fill="#000000"/><text fill="#000000" font-family="sans-serif" font-size="12" lengthAdjust="spacing" textLength="46" x="74.75" y="111.1543">McLeod</text><line style="stroke:#A80036;stroke-width:1.5;" x1="8" x2="155" y1="123" y2="123"/><rect fill="none" height="6" style="stroke:#C82930;stroke-width:1.0;" width="6" x="15" y="131"/><text fill="#000000" font-family="sans-serif" font-size="11" lengthAdjust="spacing" textLength="106" x="27" y="137.2104">INSTANCE: McLeod</text><line style="stroke:#A80036;stroke-width:1.5;" x1="8" x2="155" y1="143.8047" y2="143.8047"/><rect fill="#F24D5C" height="6" style="stroke:#C82930;stroke-width:1.0;" width="6" x="15" y="151.8047"/><text fill="#000000" font-family="sans-serif" font-size="11" lengthAdjust="spacing" textLength="50" x="27" y="158.0151">McLeod()</text><ellipse cx="18" cy="167.6094" fill="#84BE84" rx="3" ry="3" style="stroke:#038048;stroke-width:1.0;"/><text fill="#000000" font-family="sans-serif" font-size="11" lengthAdjust="spacing" textLength="123" x="27" y="170.8198">getInstance(): McLeod</text><path d="M40.5,6 L40.5,31.1328 A0,0 0 0 0 40.5,31.1328 L77.5,31.1328 L81.5,90.8227 L85.5,31.1328 L122.5,31.1328 A0,0 0 0 0 122.5,31.1328 L122.5,16 L112.5,6 L40.5,6 A0,0 0 0 0 40.5,6 " fill="#FBFB77" style="stroke:#A80036;stroke-width:1.0;"/><path d="M112.5,6 L112.5,16 L122.5,16 L112.5,6 " fill="#FBFB77" style="stroke:#A80036;stroke-width:1.0;"/><text fill="#000000" font-family="sans-serif" font-size="13" lengthAdjust="spacing" textLength="61" x="46.5" y="23.0669">Singleton</text><!--MD5=[0823db40efcbdd7b9d0f6e9c0ae95ae2]
@startuml

class McLeod {
    - INSTANCE: McLeod

    - McLeod()
    + getInstance(): McLeod
}
note top of McLeod: Singleton

skinparam Shadowing false

@enduml

PlantUML version 1.2021.01(Tue Feb 02 10:55:08 MSK 2021)
(GPL source distribution)
Java Runtime: OpenJDK Runtime Environment
JVM: OpenJDK 64-Bit Server VM
Default Encoding: UTF-8
Language: en
Country: US
--></g></svg>