<?xml version="1.0" encoding="UTF-8" standalone="no"?><svg xmlns="http://www.w3.org/2000/svg" xmlns:xlink="http://www.w3.org/1999/xlink" contentScriptType="application/ecmascript" contentStyleType="text/css" height="173px" preserveAspectRatio="none" style="width:215px;height:173px;" version="1.1" viewBox="0 0 215 173" width="215px" zoomAndPan="magnify"><defs/><g><!--MD5=[e7713a66b67445a0eb297b7e73c442e5]
class Duration--><rect codeLine="2" fill="#FEFECE" height="73.6094" id="Duration" style="stroke:#A80036;stroke-width:1.5;" width="201" x="7" y="7"/><ellipse cx="77.25" cy="23" fill="#ADD1B2" rx="11" ry="11" style="stroke:#A80036;stroke-width:1.0;"/><path d="M79.7188,28.875 Q79.1406,29.1875 78.5,29.3438 Q77.8594,29.5 77.1563,29.5 Q74.6563,29.5 73.3281,27.8281 Q72.0156,26.1563 72.0156,23 Q72.0156,19.8438 73.3281,18.1719 Q74.6563,16.5 77.1563,16.5 Q77.8594,16.5 78.5,16.6563 Q79.1563,16.8125 79.7188,17.125 L79.7188,19.9219 Q79.0938,19.3594 78.5,19.0938 Q77.9063,18.8125 77.2813,18.8125 Q75.9375,18.8125 75.25,19.875 Q74.5625,20.9375 74.5625,23 Q74.5625,25.0781 75.25,26.1406 Q75.9375,27.1875 77.2813,27.1875 Q77.9063,27.1875 78.5,26.9219 Q79.0938,26.6563 79.7188,26.0781 L79.7188,28.875 Z " fill="#000000"/><text fill="#000000" font-family="sans-serif" font-size="12" lengthAdjust="spacing" textLength="52" x="97.75" y="27.1543">Duration</text><line style="stroke:#A80036;stroke-width:1.5;" x1="8" x2="207" y1="39" y2="39"/><line style="stroke:#A80036;stroke-width:1.5;" x1="8" x2="207" y1="47" y2="47"/><text fill="#000000" font-family="sans-serif" font-size="11" lengthAdjust="spacing" text-decoration="underline" textLength="185" x="13" y="61.2104">ofMinutes(minutes: int): Duration</text><text fill="#000000" font-family="sans-serif" font-size="11" lengthAdjust="spacing" text-decoration="underline" textLength="189" x="13" y="74.0151">ofSeconds(minutes: int): Duration</text><path d="M52.5,141 L52.5,166.1328 A0,0 0 0 0 52.5,166.1328 L162.5,166.1328 A0,0 0 0 0 162.5,166.1328 L162.5,151 L152.5,141 L111.5,141 L107.5,81.0717 L103.5,141 L52.5,141 A0,0 0 0 0 52.5,141 " fill="#FBFB77" style="stroke:#A80036;stroke-width:1.0;"/><path d="M152.5,141 L152.5,151 L162.5,151 L152.5,141 " fill="#FBFB77" style="stroke:#A80036;stroke-width:1.0;"/><text fill="#000000" font-family="sans-serif" font-size="13" lengthAdjust="spacing" textLength="89" x="58.5" y="158.0669">Static Factory</text><!--MD5=[f79ea32560aa87a094de209681dca1fa]
@startuml

class Duration {
    {static} ofMinutes(minutes: int): Duration
    {static} ofSeconds(minutes: int): Duration
}
note bottom of Duration : Static Factory

skinparam Shadowing false

@enduml

PlantUML version 1.2021.01(Tue Feb 02 10:55:08 MSK 2021)
(GPL source distribution)
Java Runtime: OpenJDK Runtime Environment
JVM: OpenJDK 64-Bit Server VM
Default Encoding: UTF-8
Language: en
Country: US
--></g></svg>