<?xml version="1.0" encoding="UTF-8" standalone="no"?><svg xmlns="http://www.w3.org/2000/svg" xmlns:xlink="http://www.w3.org/1999/xlink" contentScriptType="application/ecmascript" contentStyleType="text/css" height="581px" preserveAspectRatio="none" style="width:525px;height:581px;" version="1.1" viewBox="0 0 525 581" width="525px" zoomAndPan="magnify"><defs/><g><!--MD5=[a43c5a1df0955bf5d25a35d8caec5265]
class FlyStrategy--><rect codeLine="2" fill="#FEFECE" height="85.1266" id="FlyStrategy" style="stroke:#A80036;stroke-width:2.0999999999999996;" width="141.4" x="184.8" y="197.4"/><ellipse cx="205.8" cy="219.8" fill="#B4A7E5" rx="15.4" ry="15.4" style="stroke:#A80036;stroke-width:1.4;"/><path d="M200.7906,213.8937 L200.7906,210.7 L211.1375,210.7 L211.1375,213.8937 L207.6812,213.8937 L207.6812,225.7281 L211.1375,225.7281 L211.1375,228.9 L200.7906,228.9 L200.7906,225.7281 L204.2469,225.7281 L204.2469,213.8937 L200.7906,213.8937 Z " fill="#000000"/><text fill="#000000" font-family="sans-serif" font-size="16.8" font-style="italic" lengthAdjust="spacing" textLength="96.6" x="225.4" y="225.616">FlyStrategy</text><line style="stroke:#A80036;stroke-width:2.0999999999999996;" x1="186.2" x2="324.8" y1="242.2" y2="242.2"/><line style="stroke:#A80036;stroke-width:2.0999999999999996;" x1="186.2" x2="324.8" y1="253.4" y2="253.4"/><ellipse cx="200.2" cy="268.8" fill="#84BE84" rx="4.2" ry="4.2" style="stroke:#038048;stroke-width:1.4;"/><text fill="#000000" font-family="sans-serif" font-size="15.4" lengthAdjust="spacing" textLength="30.8" x="212.8" y="273.2946">fly()</text><!--MD5=[3778ae21c94f538df3ebad0603c198f9]
class OrdinaryFlyStrategy--><rect codeLine="6" fill="#FEFECE" height="67.2" id="OrdinaryFlyStrategy" style="stroke:#A80036;stroke-width:2.0999999999999996;" width="214.2" x="9.8" y="375.9"/><ellipse cx="30.8" cy="398.3" fill="#ADD1B2" rx="15.4" ry="15.4" style="stroke:#A80036;stroke-width:1.4;"/><path d="M34.2562,406.525 Q33.4469,406.9625 32.55,407.1813 Q31.6531,407.4 30.6688,407.4 Q27.1688,407.4 25.3094,405.0594 Q23.4719,402.7188 23.4719,398.3 Q23.4719,393.8812 25.3094,391.5406 Q27.1688,389.2 30.6688,389.2 Q31.6531,389.2 32.55,389.4188 Q33.4688,389.6375 34.2562,390.075 L34.2562,393.9906 Q33.3813,393.2031 32.55,392.8312 Q31.7187,392.4375 30.8437,392.4375 Q28.9625,392.4375 28,393.925 Q27.0375,395.4125 27.0375,398.3 Q27.0375,401.2094 28,402.6969 Q28.9625,404.1625 30.8437,404.1625 Q31.7187,404.1625 32.55,403.7906 Q33.3813,403.4188 34.2562,402.6094 L34.2562,406.525 Z " fill="#000000"/><text fill="#000000" font-family="sans-serif" font-size="16.8" lengthAdjust="spacing" textLength="169.4" x="50.4" y="404.116">OrdinaryFlyStrategy</text><line style="stroke:#A80036;stroke-width:2.0999999999999996;" x1="11.2" x2="222.6" y1="420.7" y2="420.7"/><line style="stroke:#A80036;stroke-width:2.0999999999999996;" x1="11.2" x2="222.6" y1="431.9" y2="431.9"/><!--MD5=[7837797484279c0b1ba0502511fab01a]
class NoFlyStrategy--><rect codeLine="7" fill="#FEFECE" height="85.1266" id="NoFlyStrategy" style="stroke:#A80036;stroke-width:2.0999999999999996;" width="242.2" x="273" y="366.8"/><ellipse cx="329.28" cy="389.2" fill="#ADD1B2" rx="15.4" ry="15.4" style="stroke:#A80036;stroke-width:1.4;"/><path d="M332.7363,397.425 Q331.9269,397.8625 331.03,398.0812 Q330.1331,398.3 329.1487,398.3 Q325.6487,398.3 323.7894,395.9594 Q321.9519,393.6188 321.9519,389.2 Q321.9519,384.7813 323.7894,382.4406 Q325.6487,380.1 329.1487,380.1 Q330.1331,380.1 331.03,380.3187 Q331.9487,380.5375 332.7363,380.975 L332.7363,384.8906 Q331.8613,384.1031 331.03,383.7313 Q330.1987,383.3375 329.3237,383.3375 Q327.4425,383.3375 326.48,384.825 Q325.5175,386.3125 325.5175,389.2 Q325.5175,392.1094 326.48,393.5969 Q327.4425,395.0625 329.3237,395.0625 Q330.1987,395.0625 331.03,394.6906 Q331.8613,394.3187 332.7363,393.5094 L332.7363,397.425 Z " fill="#000000"/><text fill="#000000" font-family="sans-serif" font-size="16.8" lengthAdjust="spacing" textLength="119" x="356.72" y="395.016">NoFlyStrategy</text><line style="stroke:#A80036;stroke-width:2.0999999999999996;" x1="274.4" x2="513.8" y1="411.6" y2="411.6"/><ellipse cx="288.4" cy="427" fill="none" rx="4.2" ry="4.2" style="stroke:#038048;stroke-width:1.4;"/><text fill="#000000" font-family="sans-serif" font-size="15.4" lengthAdjust="spacing" textLength="205.8" x="301" y="431.4946">INSTANCE : NoFlyStrategy</text><line style="stroke:#A80036;stroke-width:2.0999999999999996;" x1="274.4" x2="513.8" y1="440.7266" y2="440.7266"/><path d="M329,536.2 L329,571.3859 A0,0 0 0 0 329,571.3859 L459.2,571.3859 A0,0 0 0 0 459.2,571.3859 L459.2,550.2 L445.2,536.2 L399.7,536.2 L394.1,452.3743 L388.5,536.2 L329,536.2 A0,0 0 0 0 329,536.2 " fill="#FBFB77" style="stroke:#A80036;stroke-width:1.4;"/><path d="M445.2,536.2 L445.2,550.2 L459.2,550.2 L445.2,536.2 " fill="#FBFB77" style="stroke:#A80036;stroke-width:1.4;"/><text fill="#000000" font-family="sans-serif" font-size="18.2" lengthAdjust="spacing" textLength="100.8" x="337.4" y="560.0937">Null Object</text><!--MD5=[ee80f128756adf0e95ba2af8ad3ecb8c]
class Duck--><rect codeLine="12" fill="#FEFECE" height="103.0531" id="Duck" style="stroke:#A80036;stroke-width:2.0999999999999996;" width="229.6" x="140.7" y="9.8"/><ellipse cx="227.85" cy="32.2" fill="#ADD1B2" rx="15.4" ry="15.4" style="stroke:#A80036;stroke-width:1.4;"/><path d="M231.3062,40.425 Q230.4969,40.8625 229.6,41.0813 Q228.7031,41.3 227.7187,41.3 Q224.2187,41.3 222.3594,38.9594 Q220.5219,36.6188 220.5219,32.2 Q220.5219,27.7813 222.3594,25.4406 Q224.2187,23.1 227.7187,23.1 Q228.7031,23.1 229.6,23.3187 Q230.5187,23.5375 231.3062,23.975 L231.3062,27.8906 Q230.4312,27.1031 229.6,26.7313 Q228.7687,26.3375 227.8937,26.3375 Q226.0125,26.3375 225.05,27.825 Q224.0875,29.3125 224.0875,32.2 Q224.0875,35.1094 225.05,36.5969 Q226.0125,38.0625 227.8937,38.0625 Q228.7687,38.0625 229.6,37.6906 Q230.4312,37.3187 231.3062,36.5094 L231.3062,40.425 Z " fill="#000000"/><text fill="#000000" font-family="sans-serif" font-size="16.8" lengthAdjust="spacing" textLength="43.4" x="256.55" y="38.016">Duck</text><line style="stroke:#A80036;stroke-width:2.0999999999999996;" x1="142.1" x2="368.9" y1="54.6" y2="54.6"/><ellipse cx="156.1" cy="70" fill="none" rx="4.2" ry="4.2" style="stroke:#038048;stroke-width:1.4;"/><text fill="#000000" font-family="sans-serif" font-size="15.4" lengthAdjust="spacing" textLength="193.2" x="168.7" y="74.4946">flyStrategy : FlyStrategy</text><line style="stroke:#A80036;stroke-width:2.0999999999999996;" x1="142.1" x2="368.9" y1="83.7266" y2="83.7266"/><ellipse cx="156.1" cy="99.1266" fill="#84BE84" rx="4.2" ry="4.2" style="stroke:#038048;stroke-width:1.4;"/><text fill="#000000" font-family="sans-serif" font-size="15.4" lengthAdjust="spacing" textLength="53.2" x="168.7" y="103.6212">doFly()</text><!--MD5=[ee092264ecdde36a759145202d9d888f]
reverse link FlyStrategy to OrdinaryFlyStrategy--><path d="M204.4,310.8468 C204.4,310.8468 204.4,375.8422 204.4,375.8422 " fill="none" id="FlyStrategy-backto-OrdinaryFlyStrategy" style="stroke:#A80036;stroke-width:1.4;stroke-dasharray:7.0,7.0;"/><polygon fill="none" points="194.6001,310.8468,204.4,282.8468,214.2001,310.8468,194.6001,310.8468" style="stroke:#A80036;stroke-width:1.4;"/><!--MD5=[5f9a62b34a66f3f19ed8d7c82a5f0aac]
reverse link FlyStrategy to NoFlyStrategy--><path d="M299.6,310.8468 C299.6,310.8468 299.6,366.767 299.6,366.767 " fill="none" id="FlyStrategy-backto-NoFlyStrategy" style="stroke:#A80036;stroke-width:1.4;stroke-dasharray:7.0,7.0;"/><polygon fill="none" points="289.8001,310.8468,299.6,282.8468,309.4001,310.8468,289.8001,310.8468" style="stroke:#A80036;stroke-width:1.4;"/><!--MD5=[76fa8069b6310e66e59f5dfcd7437c4c]
reverse link Duck to FlyStrategy--><path codeLine="17" d="M255.5,131.9094 C255.5,131.9094 255.5,197.2473 255.5,197.2473 " fill="none" id="Duck-backto-FlyStrategy" style="stroke:#A80036;stroke-width:1.4;"/><polygon fill="#FFFFFF" points="255.5,113.7094,249.9,122.1094,255.5,130.5094,261.1,122.1094,255.5,113.7094" style="stroke:#A80036;stroke-width:1.4;"/><text fill="#000000" font-family="sans-serif" font-size="18.2" lengthAdjust="spacing" textLength="11.2" x="243.3725" y="141.0334">1</text><text fill="#000000" font-family="sans-serif" font-size="18.2" lengthAdjust="spacing" textLength="11.2" x="243.145" y="182.1843">1</text><!--MD5=[9bc2e95e5612c795366ee321746183a1]
@startuml

interface FlyStrategy {
  + fly()
}

class OrdinaryFlyStrategy implements FlyStrategy
class NoFlyStrategy implements FlyStrategy {
  + INSTANCE : NoFlyStrategy
}
note bottom of NoFlyStrategy : Null Object

class Duck {
  + flyStrategy : FlyStrategy
  + doFly()
}

Duck "1" o- - "1" FlyStrategy

skinparam linetype ortho
skinparam Shadowing false

@enduml

PlantUML version 1.2021.01(Tue Feb 02 10:55:08 MSK 2021)
(GPL source distribution)
Java Runtime: OpenJDK Runtime Environment
JVM: OpenJDK 64-Bit Server VM
Default Encoding: UTF-8
Language: en
Country: US
--></g></svg>