<?xml version="1.0" encoding="UTF-8" standalone="no"?><svg xmlns="http://www.w3.org/2000/svg" xmlns:xlink="http://www.w3.org/1999/xlink" contentScriptType="application/ecmascript" contentStyleType="text/css" height="540px" preserveAspectRatio="none" style="width:604px;height:540px;" version="1.1" viewBox="0 0 604 540" width="604.8px" zoomAndPan="magnify"><defs/><g><!--MD5=[88e342159b0315be131588c5e8d4face]
class RList--><rect codeLine="2" fill="#FEFECE" height="399.45" id="RList" style="stroke:#A80036;stroke-width:3.5999999999999996;" width="448.8" x="16.8" y="73.9163"/><ellipse cx="183" cy="112.3163" fill="#ADD1B2" rx="26.4" ry="26.4" style="stroke:#A80036;stroke-width:2.4;"/><path d="M188.925,126.4163 Q187.5375,127.1663 186,127.5413 Q184.4625,127.9163 182.775,127.9163 Q176.775,127.9163 173.5875,123.9038 Q170.4375,119.8913 170.4375,112.3163 Q170.4375,104.7413 173.5875,100.7288 Q176.775,96.7163 182.775,96.7163 Q184.4625,96.7163 186,97.0913 Q187.575,97.4663 188.925,98.2163 L188.925,104.9288 Q187.425,103.5788 186,102.9413 Q184.575,102.2663 183.075,102.2663 Q179.85,102.2663 178.2,104.8163 Q176.55,107.3663 176.55,112.3163 Q176.55,117.3038 178.2,119.8538 Q179.85,122.3663 183.075,122.3663 Q184.575,122.3663 186,121.7288 Q187.425,121.0913 188.925,119.7038 L188.925,126.4163 Z " fill="#000000"/><text fill="#000000" font-family="sans-serif" font-size="28.8" lengthAdjust="spacing" textLength="69.6" x="232.2" y="122.2866">RList</text><rect fill="#FFFFFF" height="38.325" style="stroke:#000000;stroke-width:2.4;stroke-dasharray:2.0,2.0;" width="21.6" x="451.2" y="66.7163"/><text fill="#000000" font-family="sans-serif" font-size="28.8" font-style="italic" lengthAdjust="spacing" textLength="16.8" x="453.6" y="95.8491">T</text><line style="stroke:#A80036;stroke-width:3.5999999999999996;" x1="19.2" x2="463.2" y1="150.7163" y2="150.7163"/><rect fill="none" height="14.4" style="stroke:#C82930;stroke-width:2.4;" width="14.4" x="36" y="169.9163"/><text fill="#000000" font-family="sans-serif" font-size="26.4" lengthAdjust="spacing" textLength="103.2" x="64.8" y="184.8213">head: T</text><rect fill="none" height="14.4" style="stroke:#C82930;stroke-width:2.4;" width="14.4" x="36" y="200.6475"/><text fill="#000000" font-family="sans-serif" font-size="26.4" lengthAdjust="spacing" textLength="194.4" x="64.8" y="215.5526">tail : RList&lt;T&gt;</text><line style="stroke:#A80036;stroke-width:2.4;" x1="19.2" x2="463.2" y1="231.3788" y2="231.3788"/><line style="stroke:#A80036;stroke-width:2.4;" x1="19.2" x2="463.2" y1="236.1788" y2="236.1788"/><ellipse cx="43.2" cy="257.7788" fill="#84BE84" rx="7.2" ry="7.2" style="stroke:#038048;stroke-width:2.4;"/><text fill="#000000" font-family="sans-serif" font-size="26.4" lengthAdjust="spacing" text-decoration="underline" textLength="242.4" x="64.8" y="265.4838">cons(T): RList&lt;T&gt;</text><ellipse cx="43.2" cy="288.51" fill="#84BE84" rx="7.2" ry="7.2" style="stroke:#038048;stroke-width:2.4;"/><text fill="#000000" font-family="sans-serif" font-size="26.4" lengthAdjust="spacing" text-decoration="underline" textLength="386.4" x="64.8" y="296.2151">cons(T, RList&lt;T&gt;): RList&lt;T&gt;</text><line style="stroke:#A80036;stroke-width:2.4;" x1="19.2" x2="463.2" y1="312.0413" y2="312.0413"/><ellipse cx="43.2" cy="338.4413" fill="#84BE84" rx="7.2" ry="7.2" style="stroke:#038048;stroke-width:2.4;"/><text fill="#000000" font-family="sans-serif" font-size="26.4" lengthAdjust="spacing" textLength="127.2" x="64.8" y="346.1463">isEmpty()</text><ellipse cx="43.2" cy="369.1725" fill="#84BE84" rx="7.2" ry="7.2" style="stroke:#038048;stroke-width:2.4;"/><text fill="#000000" font-family="sans-serif" font-size="26.4" lengthAdjust="spacing" textLength="300" x="64.8" y="376.8776">iterator(): Iterator&lt;T&gt;</text><line style="stroke:#A80036;stroke-width:2.4;" x1="19.2" x2="463.2" y1="392.7038" y2="392.7038"/><ellipse cx="43.2" cy="419.1038" fill="#84BE84" rx="7.2" ry="7.2" style="stroke:#038048;stroke-width:2.4;"/><text fill="#000000" font-family="sans-serif" font-size="26.4" lengthAdjust="spacing" textLength="292.8" x="64.8" y="426.8088">prepend(T): RList&lt;T&gt;</text><ellipse cx="43.2" cy="449.835" fill="#84BE84" rx="7.2" ry="7.2" style="stroke:#038048;stroke-width:2.4;"/><text fill="#000000" font-family="sans-serif" font-size="26.4" lengthAdjust="spacing" textLength="376.8" x="64.8" y="457.5401">concat(RList&lt;T&gt;): RList&lt;T&gt;</text><!--MD5=[72a0bee0c15282426e34974b91dbd818]
link RList to RList--><path codeLine="16" d="M241.2,72.9392 C241.2,47.8191 241.2,30.7163 241.2,30.7163 C241.2,30.7163 508.8,30.7163 508.8,30.7163 C508.8,30.7163 508.8,515.5163 508.8,515.5163 C508.8,515.5163 241.2,515.5163 241.2,515.5163 C241.2,515.5163 241.2,485.2933 241.2,485.2933 " fill="none" id="RList-to-RList" style="stroke:#A80036;stroke-width:2.4;"/><polygon fill="#A80036" points="241.2,473.2933,231.6,494.8933,241.2,485.2933,250.8,494.8933,241.2,473.2933" style="stroke:#A80036;stroke-width:2.4;"/><text fill="#000000" font-family="sans-serif" font-size="31.2" lengthAdjust="spacing" textLength="50.4" x="523.2" y="245.6768">tail</text><text fill="#000000" font-family="sans-serif" font-size="31.2" lengthAdjust="spacing" textLength="19.2" x="221.175" y="47.1188">1</text><text fill="#000000" font-family="sans-serif" font-size="31.2" lengthAdjust="spacing" textLength="57.6" x="181.035" y="521.6527">0..1</text><!--MD5=[c44e62991d941366f35fd3af61a189b0]
@startuml

class RList<T> {
- head: T
- tail : RList<T>
==
+ {static} cons(T): RList<T>
+ {static} cons(T, RList<T>): RList<T>
- -
+ isEmpty()
+ iterator(): Iterator<T>
- -
+ prepend(T): RList<T>
+ concat(RList<T>): RList<T>
}

RList "1" -right- -> "0..1" RList : tail

skinparam linetype ortho
skinparam Shadowing false

@enduml

PlantUML version 1.2021.01(Tue Feb 02 10:55:08 MSK 2021)
(GPL source distribution)
Java Runtime: OpenJDK Runtime Environment
JVM: OpenJDK 64-Bit Server VM
Default Encoding: UTF-8
Language: en
Country: US
--></g></svg>