<?xml version="1.0" encoding="UTF-8" standalone="no"?><svg xmlns="http://www.w3.org/2000/svg" xmlns:xlink="http://www.w3.org/1999/xlink" contentScriptType="application/ecmascript" contentStyleType="text/css" height="294px" preserveAspectRatio="none" style="width:697px;height:293px;" version="1.1" viewBox="0 0 697 293" width="697.2px" zoomAndPan="magnify"><defs><filter height="300%" id="f1buamuvlvibkz" width="300%" x="-1" y="-1"><feGaussianBlur result="blurOut" stdDeviation="2.7999999999999994"/><feColorMatrix in="blurOut" result="blurOut2" type="matrix" values="0 0 0 0 0 0 0 0 0 0 0 0 0 0 0 0 0 0 .4 0"/><feOffset dx="5.599999999999999" dy="5.599999999999999" in="blurOut2" result="blurOut3"/><feBlend in="SourceGraphic" in2="blurOut3" mode="normal"/></filter></defs><g><!--MD5=[0aa77ab0c1926bffba8a2e1ac1a229db]
class WebService--><rect codeLine="2" fill="#FEFECE" filter="url(#f1buamuvlvibkz)" height="67.2" id="WebService" style="stroke:#A80036;stroke-width:2.0999999999999996;" width="144.2" x="275.8" y="23.1"/><ellipse cx="296.8" cy="45.5" fill="#ADD1B2" rx="15.4" ry="15.4" style="stroke:#A80036;stroke-width:1.3999999999999997;"/><path d="M300.2562,53.725 Q299.4469,54.1625 298.55,54.3812 Q297.6531,54.6 296.6687,54.6 Q293.1687,54.6 291.3094,52.2594 Q289.4719,49.9187 289.4719,45.5 Q289.4719,41.0812 291.3094,38.7406 Q293.1687,36.4 296.6687,36.4 Q297.6531,36.4 298.55,36.6187 Q299.4687,36.8375 300.2562,37.275 L300.2562,41.1906 Q299.3812,40.4031 298.55,40.0312 Q297.7187,39.6375 296.8437,39.6375 Q294.9625,39.6375 294,41.125 Q293.0375,42.6125 293.0375,45.5 Q293.0375,48.4094 294,49.8969 Q294.9625,51.3625 296.8437,51.3625 Q297.7187,51.3625 298.55,50.9906 Q299.3812,50.6187 300.2562,49.8094 L300.2562,53.725 Z " fill="#000000"/><text fill="#000000" font-family="sans-serif" font-size="16.8" lengthAdjust="spacing" textLength="99.4" x="316.4" y="51.316">WebService</text><line style="stroke:#A80036;stroke-width:2.0999999999999996;" x1="277.2" x2="418.6" y1="67.9" y2="67.9"/><line style="stroke:#A80036;stroke-width:2.0999999999999996;" x1="277.2" x2="418.6" y1="79.1" y2="79.1"/><!--MD5=[81c1678f3b146417d42d9549aee5a5c0]
class DataSource--><rect codeLine="4" fill="#FEFECE" filter="url(#f1buamuvlvibkz)" height="67.2" id="DataSource" style="stroke:#A80036;stroke-width:2.0999999999999996;" width="142.8" x="535.5" y="23.1"/><ellipse cx="556.5" cy="45.5" fill="#B4A7E5" rx="15.4" ry="15.4" style="stroke:#A80036;stroke-width:1.3999999999999997;"/><path d="M551.4906,39.5937 L551.4906,36.4 L561.8375,36.4 L561.8375,39.5937 L558.3812,39.5937 L558.3812,51.4281 L561.8375,51.4281 L561.8375,54.6 L551.4906,54.6 L551.4906,51.4281 L554.9469,51.4281 L554.9469,39.5937 L551.4906,39.5937 Z " fill="#000000"/><text fill="#000000" font-family="sans-serif" font-size="16.8" font-style="italic" lengthAdjust="spacing" textLength="98" x="576.1" y="51.316">DataSource</text><line style="stroke:#A80036;stroke-width:2.0999999999999996;" x1="536.9" x2="676.9" y1="67.9" y2="67.9"/><line style="stroke:#A80036;stroke-width:2.0999999999999996;" x1="536.9" x2="676.9" y1="79.1" y2="79.1"/><!--MD5=[77668392e423fee4515f0e88e4ca0ebb]
class MessageQueue--><rect codeLine="6" fill="#FEFECE" filter="url(#f1buamuvlvibkz)" height="67.2" id="MessageQueue" style="stroke:#A80036;stroke-width:2.0999999999999996;" width="170.8" x="262.5" y="207.2"/><ellipse cx="283.5" cy="229.6" fill="#B4A7E5" rx="15.4" ry="15.4" style="stroke:#A80036;stroke-width:1.3999999999999997;"/><path d="M278.4906,223.6937 L278.4906,220.5 L288.8375,220.5 L288.8375,223.6937 L285.3812,223.6937 L285.3812,235.5281 L288.8375,235.5281 L288.8375,238.7 L278.4906,238.7 L278.4906,235.5281 L281.9469,235.5281 L281.9469,223.6937 L278.4906,223.6937 Z " fill="#000000"/><text fill="#000000" font-family="sans-serif" font-size="16.8" font-style="italic" lengthAdjust="spacing" textLength="126" x="303.1" y="235.416">MessageQueue</text><line style="stroke:#A80036;stroke-width:2.0999999999999996;" x1="263.9" x2="431.9" y1="252" y2="252"/><line style="stroke:#A80036;stroke-width:2.0999999999999996;" x1="263.9" x2="431.9" y1="263.2" y2="263.2"/><!--MD5=[0b751655c2c1ffbfbd2272aa0ecbc96a]
class Injector--><rect codeLine="8" fill="#FEFECE" filter="url(#f1buamuvlvibkz)" height="85.1266" id="Injector" style="stroke:#A80036;stroke-width:2.0999999999999996;" width="124.6" x="9.8" y="14"/><ellipse cx="30.8" cy="36.4" fill="#ADD1B2" rx="15.4" ry="15.4" style="stroke:#A80036;stroke-width:1.3999999999999997;"/><path d="M34.2562,44.625 Q33.4469,45.0625 32.55,45.2812 Q31.6531,45.5 30.6687,45.5 Q27.1687,45.5 25.3094,43.1594 Q23.4719,40.8187 23.4719,36.4 Q23.4719,31.9812 25.3094,29.6406 Q27.1687,27.3 30.6687,27.3 Q31.6531,27.3 32.55,27.5187 Q33.4687,27.7375 34.2562,28.175 L34.2562,32.0906 Q33.3812,31.3031 32.55,30.9312 Q31.7187,30.5375 30.8437,30.5375 Q28.9625,30.5375 28,32.025 Q27.0375,33.5125 27.0375,36.4 Q27.0375,39.3094 28,40.7969 Q28.9625,42.2625 30.8437,42.2625 Q31.7187,42.2625 32.55,41.8906 Q33.3812,41.5187 34.2562,40.7094 L34.2562,44.625 Z " fill="#000000"/><text fill="#000000" font-family="sans-serif" font-size="16.8" lengthAdjust="spacing" textLength="64.4" x="50.4" y="42.216">Injector</text><rect fill="#FFFFFF" height="22.3562" style="stroke:#000000;stroke-width:1.3999999999999997;stroke-dasharray:2.0,2.0;" width="12.6" x="126" y="9.8"/><text fill="#000000" font-family="sans-serif" font-size="16.8" font-style="italic" lengthAdjust="spacing" textLength="9.8" x="127.4" y="26.7941">T</text><line style="stroke:#A80036;stroke-width:2.0999999999999996;" x1="11.2" x2="133" y1="58.8" y2="58.8"/><line style="stroke:#A80036;stroke-width:2.0999999999999996;" x1="11.2" x2="133" y1="70" y2="70"/><ellipse cx="25.2" cy="85.4" fill="#84BE84" rx="4.2" ry="4.2" style="stroke:#038048;stroke-width:1.3999999999999997;"/><text fill="#000000" font-family="sans-serif" font-size="15.4" lengthAdjust="spacing" textLength="88.2" x="37.8" y="89.8946">create() : T</text><!--MD5=[1fbe7add374208688fb7e65442a08fac]
link WebService to DataSource--><path codeLine="11" d="M420.0459,56.7 C453.5835,56.7 493.5525,56.7 527.9011,56.7 " fill="none" id="WebService-to-DataSource" style="stroke:#A80036;stroke-width:1.3999999999999997;"/><polygon fill="#A80036" points="535.1409,56.7,522.5409,51.1,528.1409,56.7,522.5409,62.3,535.1409,56.7" style="stroke:#A80036;stroke-width:1.3999999999999997;"/><text fill="#000000" font-family="sans-serif" font-size="18.2" lengthAdjust="spacing" textLength="64.4" x="445.55" y="46.9937">«uses»</text><!--MD5=[15fd17cae20768566cef627bdd6c2cd4]
link WebService to MessageQueue--><path codeLine="12" d="M347.9,90.4667 C347.9,121.1557 347.9,166.5273 347.9,199.3932 " fill="none" id="WebService-to-MessageQueue" style="stroke:#A80036;stroke-width:1.3999999999999997;"/><polygon fill="#A80036" points="347.9,206.6239,353.5,194.0239,347.9,199.6239,342.3,194.0239,347.9,206.6239" style="stroke:#A80036;stroke-width:1.3999999999999997;"/><text fill="#000000" font-family="sans-serif" font-size="18.2" lengthAdjust="spacing" textLength="64.4" x="349.3" y="159.6937">«uses»</text><!--MD5=[8d4e741e73714396e5489bfbdb6e2ce6]
link Injector to WebService--><path codeLine="13" d="M134.6832,56.7 C174.1963,56.7 225.6097,56.7 268.0497,56.7 " fill="none" id="Injector-to-WebService" style="stroke:#A80036;stroke-width:1.3999999999999997;"/><polygon fill="#A80036" points="275.3213,56.7,262.7213,51.1,268.3213,56.7,262.7213,62.3,275.3213,56.7" style="stroke:#A80036;stroke-width:1.3999999999999997;"/><text fill="#000000" font-family="sans-serif" font-size="18.2" lengthAdjust="spacing" textLength="89.6" x="160.3" y="46.9937">«creates»</text><!--MD5=[5688ea7d46538b0b4a7228e65451c8e1]
@startuml

class WebService {
}
interface DataSource {
}
interface MessageQueue {
}
class Injector<T> {
    + create() : T
}
WebService -> DataSource: <<uses>>
WebService - -> MessageQueue: <<uses>>
Injector -> WebService: <<creates>>

@enduml

PlantUML version 1.2021.5(Sun Apr 25 14:20:28 MSK 2021)
(GPL source distribution)
Java Runtime: OpenJDK Runtime Environment
JVM: Dynamic Code Evolution 64-Bit Server VM
Default Encoding: UTF-8
Language: en
Country: US
--></g></svg>