<?xml version="1.0" encoding="UTF-8" standalone="no"?><svg xmlns="http://www.w3.org/2000/svg" xmlns:xlink="http://www.w3.org/1999/xlink" contentScriptType="application/ecmascript" contentStyleType="text/css" height="271.6px" preserveAspectRatio="none" style="width:470px;height:271px;" version="1.1" viewBox="0 0 470 271" width="470.4px" zoomAndPan="magnify"><defs><filter height="300%" id="f1naqgwhn19bh5" width="300%" x="-1" y="-1"><feGaussianBlur result="blurOut" stdDeviation="2.7999999999999994"/><feColorMatrix in="blurOut" result="blurOut2" type="matrix" values="0 0 0 0 0 0 0 0 0 0 0 0 0 0 0 0 0 0 .4 0"/><feOffset dx="5.599999999999999" dy="5.599999999999999" in="blurOut2" result="blurOut3"/><feBlend in="SourceGraphic" in2="blurOut3" mode="normal"/></filter></defs><g><!--MD5=[0aa77ab0c1926bffba8a2e1ac1a229db]
class WebService--><rect codeLine="2" fill="#FEFECE" filter="url(#f1naqgwhn19bh5)" height="67.2" id="WebService" style="stroke:#A80036;stroke-width:2.0999999999999996;" width="144.2" x="23.1" y="9.8"/><ellipse cx="44.1" cy="32.2" fill="#ADD1B2" rx="15.4" ry="15.4" style="stroke:#A80036;stroke-width:1.3999999999999997;"/><path d="M47.5562,40.425 Q46.7469,40.8625 45.85,41.0812 Q44.9531,41.3 43.9687,41.3 Q40.4687,41.3 38.6094,38.9594 Q36.7719,36.6187 36.7719,32.2 Q36.7719,27.7812 38.6094,25.4406 Q40.4687,23.1 43.9687,23.1 Q44.9531,23.1 45.85,23.3187 Q46.7687,23.5375 47.5562,23.975 L47.5562,27.8906 Q46.6812,27.1031 45.85,26.7312 Q45.0187,26.3375 44.1437,26.3375 Q42.2625,26.3375 41.3,27.825 Q40.3375,29.3125 40.3375,32.2 Q40.3375,35.1094 41.3,36.5969 Q42.2625,38.0625 44.1437,38.0625 Q45.0187,38.0625 45.85,37.6906 Q46.6812,37.3187 47.5562,36.5094 L47.5562,40.425 Z " fill="#000000"/><text fill="#000000" font-family="sans-serif" font-size="16.8" lengthAdjust="spacing" textLength="99.4" x="63.7" y="38.016">WebService</text><line style="stroke:#A80036;stroke-width:2.0999999999999996;" x1="24.5" x2="165.9" y1="54.6" y2="54.6"/><line style="stroke:#A80036;stroke-width:2.0999999999999996;" x1="24.5" x2="165.9" y1="65.8" y2="65.8"/><!--MD5=[81c1678f3b146417d42d9549aee5a5c0]
class DataSource--><rect codeLine="4" fill="#FEFECE" filter="url(#f1naqgwhn19bh5)" height="67.2" id="DataSource" style="stroke:#A80036;stroke-width:2.0999999999999996;" width="142.8" x="308" y="9.8"/><ellipse cx="329" cy="32.2" fill="#B4A7E5" rx="15.4" ry="15.4" style="stroke:#A80036;stroke-width:1.3999999999999997;"/><path d="M323.9906,26.2937 L323.9906,23.1 L334.3375,23.1 L334.3375,26.2937 L330.8812,26.2937 L330.8812,38.1281 L334.3375,38.1281 L334.3375,41.3 L323.9906,41.3 L323.9906,38.1281 L327.4469,38.1281 L327.4469,26.2937 L323.9906,26.2937 Z " fill="#000000"/><text fill="#000000" font-family="sans-serif" font-size="16.8" font-style="italic" lengthAdjust="spacing" textLength="98" x="348.6" y="38.016">DataSource</text><line style="stroke:#A80036;stroke-width:2.0999999999999996;" x1="309.4" x2="449.4" y1="54.6" y2="54.6"/><line style="stroke:#A80036;stroke-width:2.0999999999999996;" x1="309.4" x2="449.4" y1="65.8" y2="65.8"/><!--MD5=[77668392e423fee4515f0e88e4ca0ebb]
class MessageQueue--><rect codeLine="6" fill="#FEFECE" filter="url(#f1naqgwhn19bh5)" height="67.2" id="MessageQueue" style="stroke:#A80036;stroke-width:2.0999999999999996;" width="170.8" x="9.8" y="184.8"/><ellipse cx="30.8" cy="207.2" fill="#B4A7E5" rx="15.4" ry="15.4" style="stroke:#A80036;stroke-width:1.3999999999999997;"/><path d="M25.7906,201.2937 L25.7906,198.1 L36.1375,198.1 L36.1375,201.2937 L32.6812,201.2937 L32.6812,213.1281 L36.1375,213.1281 L36.1375,216.3 L25.7906,216.3 L25.7906,213.1281 L29.2469,213.1281 L29.2469,201.2937 L25.7906,201.2937 Z " fill="#000000"/><text fill="#000000" font-family="sans-serif" font-size="16.8" font-style="italic" lengthAdjust="spacing" textLength="126" x="50.4" y="213.016">MessageQueue</text><line style="stroke:#A80036;stroke-width:2.0999999999999996;" x1="11.2" x2="179.2" y1="229.6" y2="229.6"/><line style="stroke:#A80036;stroke-width:2.0999999999999996;" x1="11.2" x2="179.2" y1="240.8" y2="240.8"/><!--MD5=[1fbe7add374208688fb7e65442a08fac]
link WebService to DataSource--><path codeLine="8" d="M167.651,43.4 C208.2266,43.4 258.868,43.4 300.4515,43.4 " fill="none" id="WebService-to-DataSource" style="stroke:#A80036;stroke-width:1.3999999999999997;"/><polygon fill="#A80036" points="307.5738,43.4,294.9738,37.8,300.5738,43.4,294.9738,49,307.5738,43.4" style="stroke:#A80036;stroke-width:1.3999999999999997;"/><text fill="#000000" font-family="sans-serif" font-size="18.2" lengthAdjust="spacing" textLength="89.6" x="192.85" y="33.6937">«creates»</text><!--MD5=[15fd17cae20768566cef627bdd6c2cd4]
link WebService to MessageQueue--><path codeLine="9" d="M95.2,77.1418 C95.2,105.8303 95.2,147.107 95.2,177.6382 " fill="none" id="WebService-to-MessageQueue" style="stroke:#A80036;stroke-width:1.3999999999999997;"/><polygon fill="#A80036" points="95.2,184.7618,100.8,172.1618,95.2,177.7618,89.6,172.1618,95.2,184.7618" style="stroke:#A80036;stroke-width:1.3999999999999997;"/><text fill="#000000" font-family="sans-serif" font-size="18.2" lengthAdjust="spacing" textLength="89.6" x="96.6" y="137.2937">«creates»</text><!--MD5=[15a081d5461e91e3260e8ac5ca18209c]
@startuml

class WebService {
}
interface DataSource {
}
interface MessageQueue {
}
WebService -right-> DataSource: <<creates>>
WebService -down-> MessageQueue: <<creates>>

@enduml

PlantUML version 1.2021.5(Sun Apr 25 14:20:28 MSK 2021)
(GPL source distribution)
Java Runtime: OpenJDK Runtime Environment
JVM: Dynamic Code Evolution 64-Bit Server VM
Default Encoding: UTF-8
Language: en
Country: US
--></g></svg>