<?xml version="1.0" encoding="UTF-8" standalone="no"?><svg xmlns="http://www.w3.org/2000/svg" xmlns:xlink="http://www.w3.org/1999/xlink" contentScriptType="application/ecmascript" contentStyleType="text/css" height="289.8px" preserveAspectRatio="none" style="width:855px;height:289px;" version="1.1" viewBox="0 0 855 289" width="855.4px" zoomAndPan="magnify"><defs><filter height="300%" id="fsewb2s1axr1h" width="300%" x="-1" y="-1"><feGaussianBlur result="blurOut" stdDeviation="2.7999999999999994"/><feColorMatrix in="blurOut" result="blurOut2" type="matrix" values="0 0 0 0 0 0 0 0 0 0 0 0 0 0 0 0 0 0 .4 0"/><feOffset dx="5.599999999999999" dy="5.599999999999999" in="blurOut2" result="blurOut3"/><feBlend in="SourceGraphic" in2="blurOut3" mode="normal"/></filter></defs><g><!--MD5=[1e01740ac65d9cfc5dbad37d18c706e8]
class ServiceLocator--><rect codeLine="2" fill="#FEFECE" filter="url(#fsewb2s1axr1h)" height="85.1266" id="ServiceLocator" style="stroke:#A80036;stroke-width:2.0999999999999996;" width="284.2" x="270.2" y="9.8"/><ellipse cx="344.05" cy="32.2" fill="#B4A7E5" rx="15.4" ry="15.4" style="stroke:#A80036;stroke-width:1.3999999999999997;"/><path d="M339.0406,26.2937 L339.0406,23.1 L349.3875,23.1 L349.3875,26.2937 L345.9312,26.2937 L345.9312,38.1281 L349.3875,38.1281 L349.3875,41.3 L339.0406,41.3 L339.0406,38.1281 L342.4969,38.1281 L342.4969,26.2937 L339.0406,26.2937 Z " fill="#000000"/><text fill="#000000" font-family="sans-serif" font-size="16.8" font-style="italic" lengthAdjust="spacing" textLength="124.6" x="372.75" y="38.016">ServiceLocator</text><line style="stroke:#A80036;stroke-width:2.0999999999999996;" x1="271.6" x2="553" y1="54.6" y2="54.6"/><line style="stroke:#A80036;stroke-width:2.0999999999999996;" x1="271.6" x2="553" y1="65.8" y2="65.8"/><ellipse cx="285.6" cy="81.2" fill="#84BE84" rx="4.2" ry="4.2" style="stroke:#038048;stroke-width:1.3999999999999997;"/><text fill="#000000" font-family="sans-serif" font-size="15.4" lengthAdjust="spacing" textLength="247.8" x="298.2" y="85.6946">&lt;T&gt; locate(clazz: Class&lt;T&gt;): T</text><!--MD5=[0aa77ab0c1926bffba8a2e1ac1a229db]
class WebService--><rect codeLine="6" fill="#FEFECE" filter="url(#fsewb2s1axr1h)" height="67.2" id="WebService" style="stroke:#A80036;stroke-width:2.0999999999999996;" width="144.2" x="9.8" y="18.9"/><ellipse cx="30.8" cy="41.3" fill="#ADD1B2" rx="15.4" ry="15.4" style="stroke:#A80036;stroke-width:1.3999999999999997;"/><path d="M34.2562,49.525 Q33.4469,49.9625 32.55,50.1812 Q31.6531,50.4 30.6687,50.4 Q27.1687,50.4 25.3094,48.0594 Q23.4719,45.7187 23.4719,41.3 Q23.4719,36.8812 25.3094,34.5406 Q27.1687,32.2 30.6687,32.2 Q31.6531,32.2 32.55,32.4187 Q33.4687,32.6375 34.2562,33.075 L34.2562,36.9906 Q33.3812,36.2031 32.55,35.8312 Q31.7187,35.4375 30.8437,35.4375 Q28.9625,35.4375 28,36.925 Q27.0375,38.4125 27.0375,41.3 Q27.0375,44.2094 28,45.6969 Q28.9625,47.1625 30.8437,47.1625 Q31.7187,47.1625 32.55,46.7906 Q33.3812,46.4187 34.2562,45.6094 L34.2562,49.525 Z " fill="#000000"/><text fill="#000000" font-family="sans-serif" font-size="16.8" lengthAdjust="spacing" textLength="99.4" x="50.4" y="47.116">WebService</text><line style="stroke:#A80036;stroke-width:2.0999999999999996;" x1="11.2" x2="152.6" y1="63.7" y2="63.7"/><line style="stroke:#A80036;stroke-width:2.0999999999999996;" x1="11.2" x2="152.6" y1="74.9" y2="74.9"/><!--MD5=[81c1678f3b146417d42d9549aee5a5c0]
class DataSource--><rect codeLine="8" fill="#FEFECE" filter="url(#fsewb2s1axr1h)" height="67.2" id="DataSource" style="stroke:#A80036;stroke-width:2.0999999999999996;" width="142.8" x="693.7" y="18.9"/><ellipse cx="714.7" cy="41.3" fill="#B4A7E5" rx="15.4" ry="15.4" style="stroke:#A80036;stroke-width:1.3999999999999997;"/><path d="M709.6906,35.3937 L709.6906,32.2 L720.0375,32.2 L720.0375,35.3937 L716.5812,35.3937 L716.5812,47.2281 L720.0375,47.2281 L720.0375,50.4 L709.6906,50.4 L709.6906,47.2281 L713.1469,47.2281 L713.1469,35.3937 L709.6906,35.3937 Z " fill="#000000"/><text fill="#000000" font-family="sans-serif" font-size="16.8" font-style="italic" lengthAdjust="spacing" textLength="98" x="734.3" y="47.116">DataSource</text><line style="stroke:#A80036;stroke-width:2.0999999999999996;" x1="695.1" x2="835.1" y1="63.7" y2="63.7"/><line style="stroke:#A80036;stroke-width:2.0999999999999996;" x1="695.1" x2="835.1" y1="74.9" y2="74.9"/><!--MD5=[77668392e423fee4515f0e88e4ca0ebb]
class MessageQueue--><rect codeLine="10" fill="#FEFECE" filter="url(#fsewb2s1axr1h)" height="67.2" id="MessageQueue" style="stroke:#A80036;stroke-width:2.0999999999999996;" width="170.8" x="326.9" y="203"/><ellipse cx="347.9" cy="225.4" fill="#B4A7E5" rx="15.4" ry="15.4" style="stroke:#A80036;stroke-width:1.3999999999999997;"/><path d="M342.8906,219.4937 L342.8906,216.3 L353.2375,216.3 L353.2375,219.4937 L349.7812,219.4937 L349.7812,231.3281 L353.2375,231.3281 L353.2375,234.5 L342.8906,234.5 L342.8906,231.3281 L346.3469,231.3281 L346.3469,219.4937 L342.8906,219.4937 Z " fill="#000000"/><text fill="#000000" font-family="sans-serif" font-size="16.8" font-style="italic" lengthAdjust="spacing" textLength="126" x="367.5" y="231.216">MessageQueue</text><line style="stroke:#A80036;stroke-width:2.0999999999999996;" x1="328.3" x2="496.3" y1="247.8" y2="247.8"/><line style="stroke:#A80036;stroke-width:2.0999999999999996;" x1="328.3" x2="496.3" y1="259" y2="259"/><!--MD5=[50aab72628ef219be4cab5421762e09e]
link WebService to ServiceLocator--><path codeLine="12" d="M154.4077,52.5 C186.4178,52.5 225.293,52.5 263.0468,52.5 " fill="none" id="WebService-to-ServiceLocator" style="stroke:#A80036;stroke-width:1.3999999999999997;"/><polygon fill="#A80036" points="270.0814,52.5,257.4814,46.9,263.0814,52.5,257.4814,58.1,270.0814,52.5" style="stroke:#A80036;stroke-width:1.3999999999999997;"/><text fill="#000000" font-family="sans-serif" font-size="18.2" lengthAdjust="spacing" textLength="64.4" x="179.9" y="42.7937">«uses»</text><!--MD5=[ae61795d4841ba4534b39b0067c8a38d]
link ServiceLocator to DataSource--><path codeLine="13" d="M554.7804,52.5 C599.6089,52.5 647.4748,52.5 686.2002,52.5 " fill="none" id="ServiceLocator-to-DataSource" style="stroke:#A80036;stroke-width:1.3999999999999997;"/><polygon fill="#A80036" points="693.322,52.5,680.722,46.9,686.322,52.5,680.722,58.1,693.322,52.5" style="stroke:#A80036;stroke-width:1.3999999999999997;"/><text fill="#000000" font-family="sans-serif" font-size="18.2" lengthAdjust="spacing" textLength="88.2" x="579.95" y="42.7937">«locates»</text><!--MD5=[9effa109687de5375c7383413da90839]
link ServiceLocator to MessageQueue--><path codeLine="14" d="M412.3,95.6633 C412.3,125.8396 412.3,165.8905 412.3,195.5834 " fill="none" id="ServiceLocator-to-MessageQueue" style="stroke:#A80036;stroke-width:1.3999999999999997;"/><polygon fill="#A80036" points="412.3,202.8968,417.9,190.2968,412.3,195.8968,406.7,190.2968,412.3,202.8968" style="stroke:#A80036;stroke-width:1.3999999999999997;"/><text fill="#000000" font-family="sans-serif" font-size="18.2" lengthAdjust="spacing" textLength="88.2" x="413.7" y="155.4937">«locates»</text><!--MD5=[8b25e4cc1d9ad3bb4759d1b84594d4c7]
@startuml

interface ServiceLocator {
    + <T> locate(clazz: Class<T>): T
}

class WebService {
}
interface DataSource {
}
interface MessageQueue {
}
WebService -> ServiceLocator: <<uses>>
ServiceLocator -right-> DataSource: <<locates>>
ServiceLocator - -> MessageQueue: <<locates>>

@enduml

PlantUML version 1.2021.5(Sun Apr 25 14:20:28 MSK 2021)
(GPL source distribution)
Java Runtime: OpenJDK Runtime Environment
JVM: Dynamic Code Evolution 64-Bit Server VM
Default Encoding: UTF-8
Language: en
Country: US
--></g></svg>