<?xml version="1.0" encoding="UTF-8" standalone="no"?><svg xmlns="http://www.w3.org/2000/svg" xmlns:xlink="http://www.w3.org/1999/xlink" contentScriptType="application/ecmascript" contentStyleType="text/css" height="411.6px" preserveAspectRatio="none" style="width:439px;height:411px;" version="1.1" viewBox="0 0 439 411" width="439.6px" zoomAndPan="magnify"><defs><filter height="300%" id="f1u59q4h8ruk7e" width="300%" x="-1" y="-1"><feGaussianBlur result="blurOut" stdDeviation="2.7999999999999994"/><feColorMatrix in="blurOut" result="blurOut2" type="matrix" values="0 0 0 0 0 0 0 0 0 0 0 0 0 0 0 0 0 0 .4 0"/><feOffset dx="5.599999999999999" dy="5.599999999999999" in="blurOut2" result="blurOut3"/><feBlend in="SourceGraphic" in2="blurOut3" mode="normal"/></filter></defs><g><!--MD5=[0968ca9ec07097e1dca0ba279e06196e]
class AbstractFizzBuzz--><rect codeLine="2" fill="#FEFECE" filter="url(#f1u59q4h8ruk7e)" height="120.9797" id="AbstractFizzBuzz" style="stroke:#A80036;stroke-width:2.0999999999999996;" width="186.2" x="234.5" y="46.9"/><ellipse cx="255.5" cy="69.3" fill="#A9DCDF" rx="15.4" ry="15.4" style="stroke:#A80036;stroke-width:1.3999999999999997;"/><path d="M255.6531,62.7156 L254.0344,70.175 L257.2937,70.175 L255.6531,62.7156 Z M253.575,59.15 L257.7531,59.15 L262.4562,77.35 L259.0219,77.35 L257.95,73.15 L253.3562,73.15 L252.3062,77.35 L248.8937,77.35 L253.575,59.15 Z " fill="#000000"/><text fill="#000000" font-family="sans-serif" font-size="16.8" font-style="italic" lengthAdjust="spacing" textLength="141.4" x="275.1" y="75.116">AbstractFizzBuzz</text><line style="stroke:#A80036;stroke-width:2.0999999999999996;" x1="235.9" x2="419.3" y1="91.7" y2="91.7"/><polygon fill="#FFFF44" points="249.9,100.1,255.5,105.7,249.9,111.3,244.3,105.7" style="stroke:#B38D22;stroke-width:1.3999999999999997;"/><text fill="#000000" font-family="sans-serif" font-size="15.4" font-style="italic" lengthAdjust="spacing" textLength="77" x="262.5" y="111.5946">doFizz(...)</text><polygon fill="#FFFF44" points="249.9,118.0266,255.5,123.6266,249.9,129.2266,244.3,123.6266" style="stroke:#B38D22;stroke-width:1.3999999999999997;"/><text fill="#000000" font-family="sans-serif" font-size="15.4" font-style="italic" lengthAdjust="spacing" textLength="85.4" x="262.5" y="129.5212">doBuzz(...)</text><line style="stroke:#A80036;stroke-width:1.3999999999999997;" x1="235.9" x2="419.3" y1="138.7531" y2="138.7531"/><ellipse cx="249.9" cy="154.1531" fill="#84BE84" rx="4.2" ry="4.2" style="stroke:#038048;stroke-width:1.3999999999999997;"/><text fill="#000000" font-family="sans-serif" font-size="15.4" lengthAdjust="spacing" textLength="92.4" x="262.5" y="158.6478">fizzBuzz(...)</text><path d="M8.4,8.4 L8.4,191.8875 A0,0 0 0 0 8.4,191.8875 L184.8,191.8875 A0,0 0 0 0 184.8,191.8875 L184.8,105.7437 L240.1,153.3164 L184.8,94.5437 L184.8,22.4 L170.8,8.4 L8.4,8.4 A0,0 0 0 0 8.4,8.4 " fill="#FBFB77" filter="url(#f1u59q4h8ruk7e)" style="stroke:#A80036;stroke-width:1.3999999999999997;"/><path d="M170.8,8.4 L170.8,22.4 L184.8,22.4 L170.8,8.4 " fill="#FBFB77" style="stroke:#A80036;stroke-width:1.3999999999999997;"/><text fill="#000000" font-family="sans-serif" font-size="18.2" lengthAdjust="spacing" textLength="78.4" x="16.8" y="32.2937">for (...) {</text><text fill="#000000" font-family="sans-serif" font-size="18.2" lengthAdjust="spacing" textLength="65.8" x="39.2" y="53.4796">if (...) {</text><text fill="#000000" font-family="sans-serif" font-size="18.2" lengthAdjust="spacing" textLength="93.8" x="61.6" y="74.6655">doFizz(...);</text><text fill="#000000" font-family="sans-serif" font-size="18.2" lengthAdjust="spacing" textLength="11.2" x="39.2" y="95.8515">}</text><text fill="#000000" font-family="sans-serif" font-size="18.2" lengthAdjust="spacing" textLength="65.8" x="39.2" y="117.0374">if (...) {</text><text fill="#000000" font-family="sans-serif" font-size="18.2" lengthAdjust="spacing" textLength="102.2" x="61.6" y="138.2233">doBuzz(...);</text><text fill="#000000" font-family="sans-serif" font-size="18.2" lengthAdjust="spacing" textLength="11.2" x="39.2" y="159.4093">}</text><text fill="#000000" font-family="sans-serif" font-size="18.2" lengthAdjust="spacing" textLength="11.2" x="16.8" y="180.5952">}</text><!--MD5=[46a07264dba5e79936eb428ba31a84a3]
class ConsoleFizzBuzz--><rect codeLine="19" fill="#FEFECE" filter="url(#f1u59q4h8ruk7e)" height="103.0531" id="ConsoleFizzBuzz" style="stroke:#A80036;stroke-width:2.0999999999999996;" width="179.2" x="238" y="289.8"/><ellipse cx="259" cy="312.2" fill="#ADD1B2" rx="15.4" ry="15.4" style="stroke:#A80036;stroke-width:1.3999999999999997;"/><path d="M262.4562,320.425 Q261.6469,320.8625 260.75,321.0812 Q259.8531,321.3 258.8687,321.3 Q255.3687,321.3 253.5094,318.9594 Q251.6719,316.6187 251.6719,312.2 Q251.6719,307.7812 253.5094,305.4406 Q255.3687,303.1 258.8687,303.1 Q259.8531,303.1 260.75,303.3187 Q261.6687,303.5375 262.4562,303.975 L262.4562,307.8906 Q261.5812,307.1031 260.75,306.7312 Q259.9187,306.3375 259.0437,306.3375 Q257.1625,306.3375 256.2,307.825 Q255.2375,309.3125 255.2375,312.2 Q255.2375,315.1094 256.2,316.5969 Q257.1625,318.0625 259.0437,318.0625 Q259.9187,318.0625 260.75,317.6906 Q261.5812,317.3187 262.4562,316.5094 L262.4562,320.425 Z " fill="#000000"/><text fill="#000000" font-family="sans-serif" font-size="16.8" lengthAdjust="spacing" textLength="134.4" x="278.6" y="318.016">ConsoleFizzBuzz</text><line style="stroke:#A80036;stroke-width:2.0999999999999996;" x1="239.4" x2="415.8" y1="334.6" y2="334.6"/><line style="stroke:#A80036;stroke-width:2.0999999999999996;" x1="239.4" x2="415.8" y1="345.8" y2="345.8"/><polygon fill="#FFFF44" points="253.4,354.2,259,359.8,253.4,365.4,247.8,359.8" style="stroke:#B38D22;stroke-width:1.3999999999999997;"/><text fill="#000000" font-family="sans-serif" font-size="15.4" lengthAdjust="spacing" textLength="77" x="266" y="365.6946">doFizz(...)</text><polygon fill="#FFFF44" points="253.4,372.1266,259,377.7266,253.4,383.3266,247.8,377.7266" style="stroke:#B38D22;stroke-width:1.3999999999999997;"/><text fill="#000000" font-family="sans-serif" font-size="15.4" lengthAdjust="spacing" textLength="85.4" x="266" y="383.6212">doBuzz(...)</text><!--MD5=[fdcd7aa61bf02e0a04b8d5826c275255]
link AbstractFizzBuzz$$$LEFT to AbstractFizzBuzz--><!--MD5=[96dc746328aaffc080219eb3cb3a3ec5]
reverse link AbstractFizzBuzz to ConsoleFizzBuzz--><path d="M327.6,195.5398 C327.6,227.3221 327.6,262.115 327.6,289.7682 " fill="none" id="AbstractFizzBuzz-backto-ConsoleFizzBuzz" style="stroke:#A80036;stroke-width:1.3999999999999997;"/><polygon fill="none" points="317.8001,195.4896,327.6,167.4896,337.4001,195.4896,317.8001,195.4896" style="stroke:#A80036;stroke-width:1.3999999999999997;"/><!--MD5=[3b7a0dce3241d016942851156d2e1280]
@startuml

abstract class AbstractFizzBuzz {
    {abstract} # doFizz(...)
    {abstract} # doBuzz(...)
    - -
    + fizzBuzz(...)
}
note left of AbstractFizzBuzz::fizzBuzz
for (...) {
    if (...) {
        doFizz(...);
    }
    if (...) {
        doBuzz(...);
    }
}
end note

class ConsoleFizzBuzz extends AbstractFizzBuzz {
    # doFizz(...)
    # doBuzz(...)
}

@enduml

PlantUML version 1.2021.5(Sun Apr 25 14:20:28 MSK 2021)
(GPL source distribution)
Java Runtime: OpenJDK Runtime Environment
JVM: Dynamic Code Evolution 64-Bit Server VM
Default Encoding: UTF-8
Language: en
Country: US
--></g></svg>